<svg width="412" height="892" viewBox="0 0 412 892" fill="none" xmlns="http://www.w3.org/2000/svg">
<g clip-path="url(#clip0_250_189)">
<rect width="412" height="892" rx="18" fill="black"/>
<path d="M26.0781 35.7012H26.2148C26.8438 35.7012 27.3678 35.6191 27.7871 35.4551C28.2109 35.2865 28.5482 35.054 28.7988 34.7578C29.0495 34.4616 29.2295 34.113 29.3389 33.7119C29.4482 33.3109 29.5029 32.8757 29.5029 32.4062V30.6904C29.5029 30.2848 29.4596 29.9294 29.373 29.624C29.291 29.3141 29.1725 29.0566 29.0176 28.8516C28.8672 28.6419 28.6917 28.4847 28.4912 28.3799C28.2952 28.2751 28.0833 28.2227 27.8555 28.2227C27.6048 28.2227 27.3792 28.2796 27.1787 28.3936C26.9827 28.5029 26.8164 28.6556 26.6797 28.8516C26.5475 29.043 26.445 29.2686 26.3721 29.5283C26.3037 29.7835 26.2695 30.057 26.2695 30.3486C26.2695 30.6221 26.3014 30.8864 26.3652 31.1416C26.4336 31.3923 26.5339 31.6156 26.666 31.8115C26.7982 32.0075 26.9645 32.1624 27.165 32.2764C27.3656 32.3903 27.6003 32.4473 27.8691 32.4473C28.1243 32.4473 28.359 32.3994 28.5732 32.3037C28.7874 32.2035 28.9743 32.069 29.1338 31.9004C29.2933 31.7318 29.4186 31.5426 29.5098 31.333C29.6009 31.1234 29.651 30.9092 29.6602 30.6904L30.2891 30.8818C30.2891 31.2282 30.2161 31.57 30.0703 31.9072C29.929 32.2399 29.7308 32.5452 29.4756 32.8232C29.2249 33.0967 28.931 33.3154 28.5938 33.4795C28.2611 33.6436 27.8988 33.7256 27.5068 33.7256C27.0329 33.7256 26.6136 33.6367 26.249 33.459C25.889 33.2767 25.5882 33.0306 25.3467 32.7207C25.1097 32.4108 24.932 32.0553 24.8135 31.6543C24.695 31.2533 24.6357 30.8317 24.6357 30.3896C24.6357 29.9111 24.7087 29.4622 24.8545 29.043C25.0003 28.6237 25.2122 28.2546 25.4902 27.9355C25.7682 27.612 26.1055 27.3613 26.502 27.1836C26.903 27.0013 27.3564 26.9102 27.8623 26.9102C28.4001 26.9102 28.8717 27.015 29.2773 27.2246C29.6829 27.4342 30.0247 27.7236 30.3027 28.0928C30.5807 28.4619 30.7904 28.8903 30.9316 29.3779C31.0729 29.8656 31.1436 30.3896 31.1436 30.9502V31.5312C31.1436 32.1191 31.0911 32.6865 30.9863 33.2334C30.8815 33.7757 30.7106 34.2793 30.4736 34.7441C30.2412 35.2044 29.9336 35.61 29.5508 35.9609C29.1725 36.3073 28.7077 36.5785 28.1562 36.7744C27.6094 36.9658 26.9668 37.0615 26.2285 37.0615H26.0781V35.7012ZM33.1019 36.1797C33.1019 35.9245 33.1885 35.7103 33.3617 35.5371C33.5349 35.3594 33.7696 35.2705 34.0658 35.2705C34.3666 35.2705 34.6013 35.3594 34.7699 35.5371C34.9431 35.7103 35.0296 35.9245 35.0296 36.1797C35.0296 36.4349 34.9431 36.6491 34.7699 36.8223C34.6013 36.9954 34.3666 37.082 34.0658 37.082C33.7696 37.082 33.5349 36.9954 33.3617 36.8223C33.1885 36.6491 33.1019 36.4349 33.1019 36.1797ZM33.1088 30.3555C33.1088 30.1003 33.1953 29.8861 33.3685 29.7129C33.5417 29.5352 33.7764 29.4463 34.0726 29.4463C34.3734 29.4463 34.6081 29.5352 34.7767 29.7129C34.9499 29.8861 35.0365 30.1003 35.0365 30.3555C35.0365 30.6107 34.9499 30.8249 34.7767 30.998C34.6081 31.1712 34.3734 31.2578 34.0726 31.2578C33.7764 31.2578 33.5417 31.1712 33.3685 30.998C33.1953 30.8249 33.1088 30.6107 33.1088 30.3555ZM38.7517 31.2783H39.7361C40.1189 31.2783 40.4356 31.2122 40.6862 31.0801C40.9415 30.9479 41.1306 30.7656 41.2536 30.5332C41.3767 30.3008 41.4382 30.0342 41.4382 29.7334C41.4382 29.4189 41.3812 29.1501 41.2673 28.9268C41.1579 28.6989 40.9893 28.5234 40.7614 28.4004C40.5381 28.2773 40.2533 28.2158 39.907 28.2158C39.6153 28.2158 39.351 28.2751 39.114 28.3936C38.8816 28.5075 38.697 28.6715 38.5603 28.8857C38.4236 29.0954 38.3552 29.346 38.3552 29.6377H36.7009C36.7009 29.109 36.8399 28.6396 37.1179 28.2295C37.3959 27.8193 37.7741 27.498 38.2527 27.2656C38.7357 27.0286 39.278 26.9102 39.8796 26.9102C40.5222 26.9102 41.0827 27.0173 41.5612 27.2314C42.0443 27.4411 42.4203 27.7555 42.6892 28.1748C42.9581 28.5941 43.0925 29.1136 43.0925 29.7334C43.0925 30.016 43.0264 30.3031 42.8943 30.5947C42.7621 30.8864 42.5661 31.153 42.3064 31.3945C42.0466 31.6315 41.723 31.8252 41.3357 31.9756C40.9483 32.1214 40.4994 32.1943 39.989 32.1943H38.7517V31.2783ZM38.7517 32.5635V31.6611H39.989C40.5723 31.6611 41.0691 31.7295 41.4792 31.8662C41.8939 32.0029 42.2312 32.1921 42.4909 32.4336C42.7507 32.6706 42.9398 32.9417 43.0583 33.2471C43.1814 33.5524 43.2429 33.876 43.2429 34.2178C43.2429 34.6826 43.1586 35.0973 42.99 35.4619C42.8259 35.8219 42.5912 36.1273 42.2859 36.3779C41.9805 36.6286 41.6228 36.8177 41.2126 36.9453C40.807 37.0729 40.365 37.1367 39.8864 37.1367C39.4581 37.1367 39.0479 37.0775 38.656 36.959C38.264 36.8405 37.9131 36.665 37.6032 36.4326C37.2933 36.1956 37.0473 35.9017 36.865 35.5508C36.6872 35.1953 36.5984 34.7852 36.5984 34.3203H38.2458C38.2458 34.6165 38.3142 34.8786 38.4509 35.1064C38.5922 35.3298 38.7881 35.5052 39.0388 35.6328C39.294 35.7604 39.5857 35.8242 39.9138 35.8242C40.2601 35.8242 40.5586 35.7627 40.8093 35.6396C41.0599 35.5166 41.2514 35.3343 41.3835 35.0928C41.5202 34.8512 41.5886 34.5596 41.5886 34.2178C41.5886 33.8304 41.5134 33.516 41.363 33.2744C41.2126 33.0329 40.9984 32.8551 40.7204 32.7412C40.4424 32.6227 40.1143 32.5635 39.7361 32.5635H38.7517ZM51.5382 31.1895V32.8164C51.5382 33.5957 51.4607 34.2611 51.3057 34.8125C51.1554 35.3594 50.9366 35.8037 50.6495 36.1455C50.3624 36.4873 50.0183 36.738 49.6173 36.8975C49.2208 37.057 48.7764 37.1367 48.2843 37.1367C47.8923 37.1367 47.5277 37.0866 47.1905 36.9863C46.8578 36.8861 46.557 36.7288 46.2882 36.5146C46.0193 36.3005 45.7891 36.0247 45.5977 35.6875C45.4109 35.3457 45.2651 34.9378 45.1602 34.4639C45.06 33.9899 45.0098 33.4408 45.0098 32.8164V31.1895C45.0098 30.4056 45.0873 29.7448 45.2423 29.207C45.3972 28.6647 45.6182 28.2249 45.9054 27.8877C46.1925 27.5459 46.5343 27.2975 46.9307 27.1426C47.3318 26.9876 47.7784 26.9102 48.2706 26.9102C48.6671 26.9102 49.0317 26.9603 49.3643 27.0605C49.7016 27.1562 50.0024 27.3089 50.2667 27.5186C50.5356 27.7282 50.7634 28.0016 50.9503 28.3389C51.1417 28.6715 51.2875 29.0749 51.3878 29.5488C51.488 30.0182 51.5382 30.5651 51.5382 31.1895ZM49.8907 33.0488V30.9434C49.8907 30.5469 49.8679 30.1982 49.8223 29.8975C49.7768 29.5921 49.7084 29.3346 49.6173 29.125C49.5307 28.9108 49.4213 28.7376 49.2891 28.6055C49.157 28.4688 49.0066 28.3708 48.838 28.3115C48.6693 28.2477 48.4802 28.2158 48.2706 28.2158C48.0154 28.2158 47.7875 28.266 47.587 28.3662C47.3865 28.4619 47.2179 28.6169 47.0811 28.8311C46.9444 29.0452 46.8396 29.3278 46.7667 29.6787C46.6983 30.0251 46.6641 30.4466 46.6641 30.9434V33.0488C46.6641 33.4499 46.6869 33.8031 46.7325 34.1084C46.7781 34.4137 46.8464 34.6758 46.9376 34.8945C47.0287 35.1087 47.1381 35.2865 47.2657 35.4277C47.3979 35.5645 47.5483 35.6647 47.7169 35.7285C47.8901 35.7923 48.0792 35.8242 48.2843 35.8242C48.544 35.8242 48.7742 35.7741 48.9747 35.6738C49.1752 35.5736 49.3438 35.4141 49.4805 35.1953C49.6173 34.972 49.7198 34.6826 49.7882 34.3271C49.8565 33.9717 49.8907 33.5456 49.8907 33.0488Z" fill="white"/>
<path opacity="0.1" d="M350.5 26.4167C347.1 26.4167 344.125 27.9042 342 30.2417L350.5 40.5833L359 30.2417C356.875 27.9042 353.9 26.4167 350.5 26.4167Z" fill="white"/>
<path d="M373.583 26.4167L359.417 40.5833H373.583V26.4167V26.4167Z" fill="white"/>
<path opacity="0.3" d="M385.5 26H382.5V27.5H381C380.448 27.5 380 28.0037 380 28.625V39.875C380 40.4963 380.448 41 381 41H387C387.552 41 388 40.4963 388 39.875V28.625C388 28.0037 387.552 27.5 387 27.5H385.5V26Z" fill="white"/>
<path d="M380 34C380 34.5833 380 39.3667 380 39.95C380 40.5299 380.448 41 381 41H387C387.552 41 388 40.5299 388 39.95C388 39.3667 388 34.5833 388 34H380Z" fill="white"/>
<path fill-rule="evenodd" clip-rule="evenodd" d="M206 18C199.373 18 194 23.3731 194 30C194 36.6269 199.373 42 206 42C212.627 42 218 36.6269 218 30C218 23.3731 212.627 18 206 18Z" fill="white"/>
<rect x="152" y="878" width="108" height="4" rx="2" fill="#202124"/>
<path d="M37.2578 89.9854L39.7598 89.7666C39.8783 90.7692 40.1517 91.5941 40.5801 92.2412C41.0176 92.8793 41.6921 93.3988 42.6035 93.7998C43.515 94.1918 44.5404 94.3877 45.6797 94.3877C46.6914 94.3877 47.5846 94.2373 48.3594 93.9366C49.1341 93.6358 49.7083 93.2256 50.082 92.7061C50.4648 92.1774 50.6562 91.6032 50.6562 90.9834C50.6562 90.3545 50.474 89.8076 50.1094 89.3428C49.7448 88.8688 49.1432 88.4724 48.3047 88.1534C47.7669 87.9437 46.5775 87.6201 44.7363 87.1826C42.8952 86.736 41.6055 86.3168 40.8672 85.9248C39.9102 85.4235 39.1947 84.8037 38.7207 84.0655C38.2559 83.3181 38.0234 82.4841 38.0234 81.5635C38.0234 80.5518 38.3105 79.6084 38.8848 78.7334C39.459 77.8493 40.2975 77.1794 41.4004 76.7237C42.5033 76.2679 43.7292 76.0401 45.0781 76.0401C46.5638 76.0401 47.8717 76.2816 49.002 76.7647C50.1413 77.2386 51.0163 77.9405 51.627 78.8701C52.2376 79.7998 52.5658 80.8526 52.6113 82.0284L50.0684 82.2198C49.9316 80.9528 49.4668 79.9958 48.6738 79.3487C47.89 78.7015 46.7279 78.378 45.1875 78.378C43.5833 78.378 42.4121 78.6742 41.6738 79.2666C40.9447 79.85 40.5801 80.5563 40.5801 81.3858C40.5801 82.1058 40.8398 82.6983 41.3594 83.1631C41.8698 83.628 43.2005 84.1065 45.3516 84.5987C47.5117 85.0817 48.9928 85.5056 49.7949 85.8701C50.9616 86.4079 51.8229 87.0915 52.3789 87.9209C52.9349 88.7412 53.2129 89.6892 53.2129 90.7647C53.2129 91.8311 52.9076 92.8382 52.2969 93.7862C51.6862 94.725 50.8066 95.4587 49.6582 95.9873C48.5189 96.5069 47.2337 96.7666 45.8027 96.7666C43.9889 96.7666 42.4668 96.5023 41.2363 95.9737C40.015 95.445 39.0534 94.652 38.3516 93.5948C37.6589 92.5284 37.2943 91.3252 37.2578 89.9854ZM62.1745 94.2237L62.53 96.3975C61.8373 96.5433 61.2175 96.6162 60.6706 96.6162C59.7774 96.6162 59.0847 96.475 58.5925 96.1924C58.1003 95.9099 57.754 95.5407 57.5534 95.085C57.3529 94.6201 57.2527 93.6494 57.2527 92.1729V83.8194H55.448V81.9053H57.2527V78.3096L59.6999 76.833V81.9053H62.1745V83.8194H59.6999V92.3096C59.6999 93.0114 59.7409 93.4626 59.823 93.6631C59.9141 93.8636 60.0554 94.0231 60.2468 94.1416C60.4473 94.2601 60.7299 94.3194 61.0945 94.3194C61.3679 94.3194 61.7279 94.2875 62.1745 94.2237ZM74.3491 94.6338C73.4376 95.4086 72.558 95.9554 71.7104 96.2744C70.8718 96.5935 69.9695 96.753 69.0034 96.753C67.4083 96.753 66.1824 96.3656 65.3256 95.5909C64.4689 94.807 64.0405 93.8089 64.0405 92.5967C64.0405 91.8858 64.2 91.2386 64.519 90.6553C64.8471 90.0629 65.2709 89.5889 65.7905 89.2334C66.3191 88.878 66.9116 88.6091 67.5678 88.4268C68.0509 88.2992 68.7801 88.1761 69.7553 88.0576C71.7423 87.8207 73.2052 87.5381 74.144 87.21C74.1531 86.8728 74.1577 86.6586 74.1577 86.5674C74.1577 85.5648 73.9252 84.8584 73.4604 84.4483C72.8315 83.8923 71.8972 83.6143 70.6577 83.6143C69.5001 83.6143 68.6433 83.8194 68.0873 84.2295C67.5405 84.6306 67.1349 85.3461 66.8705 86.376L64.4643 86.0479C64.683 85.0179 65.0431 84.1885 65.5444 83.5596C66.0457 82.9216 66.7703 82.4339 67.7182 82.0967C68.6661 81.7504 69.7644 81.5772 71.0131 81.5772C72.2527 81.5772 73.2599 81.723 74.0346 82.0147C74.8093 82.3063 75.379 82.6755 75.7436 83.1221C76.1082 83.5596 76.3634 84.1156 76.5092 84.7901C76.5912 85.2093 76.6323 85.9659 76.6323 87.0596V90.3409C76.6323 92.6286 76.6824 94.0778 76.7827 94.6885C76.892 95.2901 77.1017 95.8688 77.4116 96.4248H74.8412C74.586 95.9144 74.422 95.3174 74.3491 94.6338ZM74.144 89.1377C73.2508 89.5023 71.9109 89.8122 70.1245 90.0674C69.1127 90.2132 68.3972 90.3773 67.978 90.5596C67.5587 90.7419 67.2351 91.0108 67.0073 91.3662C66.7794 91.7126 66.6655 92.1 66.6655 92.5284C66.6655 93.1846 66.9116 93.7315 67.4037 94.169C67.9051 94.6065 68.6342 94.8252 69.5912 94.8252C70.5392 94.8252 71.3823 94.6201 72.1205 94.21C72.8588 93.7907 73.4011 93.2211 73.7475 92.501C74.0118 91.945 74.144 91.1247 74.144 90.0401V89.1377ZM80.713 96.4248V81.9053H82.9279V84.1065C83.493 83.0765 84.0125 82.3975 84.4865 82.0694C84.9696 81.7412 85.4982 81.5772 86.0724 81.5772C86.9018 81.5772 87.7449 81.8415 88.6017 82.3701L87.7541 84.6534C87.1525 84.2979 86.5509 84.1201 85.9494 84.1201C85.4116 84.1201 84.9285 84.2842 84.5002 84.6123C84.0718 84.9313 83.7664 85.378 83.5841 85.9522C83.3107 86.8272 83.174 87.7842 83.174 88.8233V96.4248H80.713ZM89.3602 92.0909L91.7938 91.708C91.9305 92.6833 92.3088 93.4307 92.9286 93.9502C93.5575 94.4698 94.4325 94.7295 95.5536 94.7295C96.6838 94.7295 97.5223 94.5017 98.0692 94.0459C98.6161 93.5811 98.8895 93.0388 98.8895 92.419C98.8895 91.863 98.648 91.4255 98.1649 91.1065C97.8277 90.8877 96.9891 90.6097 95.6493 90.2725C93.8446 89.8168 92.5914 89.4248 91.8895 89.0967C91.1968 88.7595 90.6682 88.2992 90.3036 87.7159C89.9481 87.1234 89.7704 86.4717 89.7704 85.7608C89.7704 85.1136 89.9162 84.5166 90.2079 83.9698C90.5087 83.4138 90.9143 82.9535 91.4247 82.5889C91.8075 82.3063 92.327 82.0694 92.9833 81.878C93.6486 81.6774 94.3596 81.5772 95.1161 81.5772C96.2554 81.5772 97.2535 81.7412 98.1102 82.0694C98.9761 82.3975 99.6141 82.8441 100.024 83.4092C100.434 83.9652 100.717 84.7126 100.872 85.6514L98.4657 85.9795C98.3563 85.2321 98.0373 84.6488 97.5087 84.2295C96.9891 83.8103 96.2509 83.6006 95.2938 83.6006C94.1636 83.6006 93.357 83.7875 92.8739 84.1612C92.3908 84.5349 92.1493 84.9724 92.1493 85.4737C92.1493 85.7927 92.2496 86.0798 92.4501 86.335C92.6506 86.5993 92.9651 86.8181 93.3934 86.9912C93.6395 87.0824 94.3641 87.292 95.5673 87.6201C97.3081 88.085 98.5204 88.4678 99.204 88.7686C99.8967 89.0603 100.439 89.4886 100.831 90.0537C101.223 90.6188 101.419 91.3207 101.419 92.1592C101.419 92.9795 101.177 93.7543 100.694 94.4834C100.22 95.2035 99.5321 95.764 98.6298 96.1651C97.7274 96.557 96.7066 96.753 95.5673 96.753C93.6805 96.753 92.2404 96.361 91.247 95.5772C90.2626 94.7933 89.6337 93.6312 89.3602 92.0909ZM114.099 94.6338C113.188 95.4086 112.308 95.9554 111.461 96.2744C110.622 96.5935 109.72 96.753 108.754 96.753C107.158 96.753 105.933 96.3656 105.076 95.5909C104.219 94.807 103.791 93.8089 103.791 92.5967C103.791 91.8858 103.95 91.2386 104.269 90.6553C104.597 90.0629 105.021 89.5889 105.541 89.2334C106.069 88.878 106.662 88.6091 107.318 88.4268C107.801 88.2992 108.53 88.1761 109.505 88.0576C111.492 87.8207 112.955 87.5381 113.894 87.21C113.903 86.8728 113.908 86.6586 113.908 86.5674C113.908 85.5648 113.675 84.8584 113.211 84.4483C112.582 83.8923 111.647 83.6143 110.408 83.6143C109.25 83.6143 108.393 83.8194 107.838 84.2295C107.291 84.6306 106.885 85.3461 106.621 86.376L104.214 86.0479C104.433 85.0179 104.793 84.1885 105.295 83.5596C105.796 82.9216 106.52 82.4339 107.468 82.0967C108.416 81.7504 109.515 81.5772 110.763 81.5772C112.003 81.5772 113.01 81.723 113.785 82.0147C114.56 82.3063 115.129 82.6755 115.494 83.1221C115.858 83.5596 116.114 84.1156 116.259 84.7901C116.341 85.2093 116.382 85.9659 116.382 87.0596V90.3409C116.382 92.6286 116.433 94.0778 116.533 94.6885C116.642 95.2901 116.852 95.8688 117.162 96.4248H114.591C114.336 95.9144 114.172 95.3174 114.099 94.6338ZM113.894 89.1377C113.001 89.5023 111.661 89.8122 109.875 90.0674C108.863 90.2132 108.147 90.3773 107.728 90.5596C107.309 90.7419 106.985 91.0108 106.757 91.3662C106.53 91.7126 106.416 92.1 106.416 92.5284C106.416 93.1846 106.662 93.7315 107.154 94.169C107.655 94.6065 108.384 94.8252 109.341 94.8252C110.289 94.8252 111.132 94.6201 111.871 94.21C112.609 93.7907 113.151 93.2211 113.498 92.501C113.762 91.945 113.894 91.1247 113.894 90.0401V89.1377ZM120.491 101.989V81.9053H122.733V83.792C123.261 83.0537 123.858 82.5023 124.524 82.1377C125.189 81.764 125.996 81.5772 126.944 81.5772C128.183 81.5772 129.277 81.8962 130.225 82.5342C131.173 83.1722 131.888 84.0746 132.371 85.2412C132.854 86.3988 133.096 87.6703 133.096 89.0557C133.096 90.5414 132.827 91.8812 132.289 93.0752C131.761 94.2601 130.986 95.1716 129.965 95.8096C128.953 96.4385 127.887 96.753 126.766 96.753C125.946 96.753 125.207 96.5798 124.551 96.2334C123.904 95.8871 123.371 95.4496 122.951 94.9209V101.989H120.491ZM122.719 89.2471C122.719 91.1156 123.097 92.4964 123.854 93.3897C124.61 94.2829 125.526 94.7295 126.602 94.7295C127.696 94.7295 128.63 94.2692 129.405 93.3487C130.188 92.419 130.58 90.9834 130.58 89.042C130.58 87.1918 130.198 85.8063 129.432 84.8858C128.675 83.9652 127.769 83.5049 126.711 83.5049C125.663 83.5049 124.733 83.9971 123.922 84.9815C123.12 85.9567 122.719 87.3786 122.719 89.2471ZM136.356 101.989V81.9053H138.599V83.792C139.127 83.0537 139.724 82.5023 140.39 82.1377C141.055 81.764 141.862 81.5772 142.81 81.5772C144.049 81.5772 145.143 81.8962 146.091 82.5342C147.039 83.1722 147.754 84.0746 148.237 85.2412C148.72 86.3988 148.962 87.6703 148.962 89.0557C148.962 90.5414 148.693 91.8812 148.155 93.0752C147.627 94.2601 146.852 95.1716 145.831 95.8096C144.819 96.4385 143.753 96.753 142.632 96.753C141.812 96.753 141.073 96.5798 140.417 96.2334C139.77 95.8871 139.237 95.4496 138.817 94.9209V101.989H136.356ZM138.585 89.2471C138.585 91.1156 138.963 92.4964 139.72 93.3897C140.476 94.2829 141.392 94.7295 142.468 94.7295C143.562 94.7295 144.496 94.2692 145.271 93.3487C146.054 92.419 146.446 90.9834 146.446 89.042C146.446 87.1918 146.064 85.8063 145.298 84.8858C144.541 83.9652 143.634 83.5049 142.577 83.5049C141.529 83.5049 140.599 83.9971 139.788 84.9815C138.986 85.9567 138.585 87.3786 138.585 89.2471Z" fill="white"/>
<path d="M67.3125 833.063V821.464H60.9062V826.814L54.5 820L34 841.964H39.125V861H50.6562V846.357H58.3438V861H69.875V841.964H75L67.3125 833.063Z" fill="white"/>
<path d="M350.5 820C339.179 820 330 829.179 330 840.5C330 851.804 339.197 861 350.5 861C361.82 861 371 851.82 371 840.5C371 829.196 361.804 820 350.5 820ZM361.144 843.654H349.317C349.213 843.654 349.112 843.612 349.039 843.538C348.965 843.464 348.923 843.364 348.923 843.26V826.702C348.923 826.597 348.965 826.497 349.039 826.423C349.112 826.349 349.213 826.308 349.317 826.308H351.683C351.787 826.308 351.888 826.349 351.961 826.423C352.035 826.497 352.077 826.597 352.077 826.702V840.5H361.144C361.249 840.5 361.349 840.542 361.423 840.615C361.497 840.689 361.538 840.79 361.538 840.894V843.26C361.538 843.364 361.497 843.464 361.423 843.538C361.349 843.612 361.249 843.654 361.144 843.654Z" fill="#5D5D5D"/>
<path d="M218.727 853.9L211.193 846.366C213.007 843.951 213.986 841.012 213.982 837.991C213.982 830.277 207.706 824 199.991 824C192.277 824 186 830.277 186 837.991C186 845.706 192.277 851.983 199.991 851.983C203.012 851.986 205.951 851.007 208.366 849.193L215.9 856.727C216.282 857.068 216.779 857.25 217.291 857.236C217.802 857.221 218.288 857.012 218.65 856.65C219.012 856.288 219.221 855.802 219.236 855.291C219.25 854.779 219.068 854.282 218.727 853.9ZM189.997 837.991C189.997 836.015 190.584 834.082 191.682 832.439C192.78 830.796 194.341 829.515 196.167 828.758C197.993 828.002 200.002 827.804 201.941 828.19C203.88 828.575 205.66 829.527 207.058 830.925C208.456 832.322 209.407 834.103 209.793 836.042C210.179 837.98 209.981 839.99 209.224 841.816C208.468 843.642 207.187 845.203 205.543 846.301C203.9 847.399 201.968 847.985 199.991 847.985C197.342 847.982 194.802 846.928 192.928 845.054C191.055 843.181 190.001 840.641 189.997 837.991Z" fill="white"/>
<circle cx="93.9309" cy="287.931" r="3.5" transform="rotate(50 93.9309 287.931)" fill="#D9D9D9"/>
<circle cx="89.9309" cy="189.931" r="3.5" transform="rotate(50 89.9309 189.931)" fill="#D9D9D9"/>
<circle cx="103.931" cy="518.931" r="3.5" transform="rotate(50 103.931 518.931)" fill="#D9D9D9"/>
<circle cx="55.9309" cy="271.931" r="3.5" transform="rotate(50 55.9309 271.931)" fill="#D9D9D9"/>
<circle cx="51.9309" cy="173.931" r="3.5" transform="rotate(50 51.9309 173.931)" fill="#D9D9D9"/>
<circle cx="65.9309" cy="502.931" r="3.5" transform="rotate(50 65.9309 502.931)" fill="#D9D9D9"/>
<circle cx="45.9309" cy="328.931" r="3.5" transform="rotate(50 45.9309 328.931)" fill="#D9D9D9"/>
<circle cx="41.9309" cy="230.931" r="3.5" transform="rotate(50 41.9309 230.931)" fill="#D9D9D9"/>
<circle cx="55.9309" cy="559.931" r="3.5" transform="rotate(50 55.9309 559.931)" fill="#D9D9D9"/>
<circle cx="263.931" cy="403.931" r="3.5" transform="rotate(50 263.931 403.931)" fill="#D9D9D9"/>
<circle cx="259.931" cy="305.931" r="3.5" transform="rotate(50 259.931 305.931)" fill="#D9D9D9"/>
<circle cx="273.931" cy="634.931" r="3.5" transform="rotate(50 273.931 634.931)" fill="#D9D9D9"/>
<circle cx="171.931" cy="423.931" r="3.5" transform="rotate(50 171.931 423.931)" fill="#D9D9D9"/>
<circle cx="167.931" cy="325.931" r="3.5" transform="rotate(50 167.931 325.931)" fill="#D9D9D9"/>
<circle cx="181.931" cy="654.931" r="3.5" transform="rotate(50 181.931 654.931)" fill="#D9D9D9"/>
<circle cx="325.931" cy="325.931" r="3.5" transform="rotate(50 325.931 325.931)" fill="#D9D9D9"/>
<circle cx="321.931" cy="227.931" r="3.5" transform="rotate(50 321.931 227.931)" fill="#D9D9D9"/>
<circle cx="335.931" cy="556.931" r="3.5" transform="rotate(50 335.931 556.931)" fill="#D9D9D9"/>
<circle cx="360.931" cy="264.931" r="3.5" transform="rotate(50 360.931 264.931)" fill="#D9D9D9"/>
<circle cx="356.931" cy="166.931" r="3.5" transform="rotate(50 356.931 166.931)" fill="#D9D9D9"/>
<circle cx="370.931" cy="495.931" r="3.5" transform="rotate(50 370.931 495.931)" fill="#D9D9D9"/>
<circle cx="316.931" cy="380.931" r="3.5" transform="rotate(50 316.931 380.931)" fill="#D9D9D9"/>
<circle cx="312.931" cy="282.931" r="3.5" transform="rotate(50 312.931 282.931)" fill="#D9D9D9"/>
<circle cx="326.931" cy="611.931" r="3.5" transform="rotate(50 326.931 611.931)" fill="#D9D9D9"/>
<circle cx="282.931" cy="379.931" r="3.5" transform="rotate(50 282.931 379.931)" fill="#D9D9D9"/>
<circle cx="278.931" cy="281.931" r="3.5" transform="rotate(50 278.931 281.931)" fill="#D9D9D9"/>
<circle cx="292.931" cy="610.931" r="3.5" transform="rotate(50 292.931 610.931)" fill="#D9D9D9"/>
<circle cx="133.931" cy="283.931" r="3.5" transform="rotate(50 133.931 283.931)" fill="#D9D9D9"/>
<circle cx="129.931" cy="185.931" r="3.5" transform="rotate(50 129.931 185.931)" fill="#D9D9D9"/>
<circle cx="143.931" cy="514.931" r="3.5" transform="rotate(50 143.931 514.931)" fill="#D9D9D9"/>
<circle cx="132.931" cy="389.931" r="3.5" transform="rotate(50 132.931 389.931)" fill="#D9D9D9"/>
<circle cx="128.931" cy="291.931" r="3.5" transform="rotate(50 128.931 291.931)" fill="#D9D9D9"/>
<circle cx="142.931" cy="620.931" r="3.5" transform="rotate(50 142.931 620.931)" fill="#D9D9D9"/>
<circle cx="290.931" cy="473.931" r="3.5" transform="rotate(50 290.931 473.931)" fill="#D9D9D9"/>
<circle cx="286.931" cy="375.931" r="3.5" transform="rotate(50 286.931 375.931)" fill="#D9D9D9"/>
<circle cx="300.931" cy="704.931" r="3.5" transform="rotate(50 300.931 704.931)" fill="#D9D9D9"/>
<circle cx="146.931" cy="356.931" r="3.5" transform="rotate(50 146.931 356.931)" fill="#D9D9D9"/>
<circle cx="142.931" cy="258.931" r="3.5" transform="rotate(50 142.931 258.931)" fill="#D9D9D9"/>
<circle cx="156.931" cy="587.931" r="3.5" transform="rotate(50 156.931 587.931)" fill="#D9D9D9"/>
<circle cx="304.931" cy="440.931" r="3.5" transform="rotate(50 304.931 440.931)" fill="#D9D9D9"/>
<circle cx="300.931" cy="342.931" r="3.5" transform="rotate(50 300.931 342.931)" fill="#D9D9D9"/>
<circle cx="314.931" cy="671.931" r="3.5" transform="rotate(50 314.931 671.931)" fill="#D9D9D9"/>
<circle cx="28.9309" cy="300.931" r="3.5" transform="rotate(50 28.9309 300.931)" fill="#D9D9D9"/>
<circle cx="24.9309" cy="202.931" r="3.5" transform="rotate(50 24.9309 202.931)" fill="#D9D9D9"/>
<circle cx="38.9309" cy="531.931" r="3.5" transform="rotate(50 38.9309 531.931)" fill="#D9D9D9"/>
<circle cx="210.931" cy="283.931" r="3.5" transform="rotate(50 210.931 283.931)" fill="#D9D9D9"/>
<circle cx="206.931" cy="185.931" r="3.5" transform="rotate(50 206.931 185.931)" fill="#D9D9D9"/>
<circle cx="220.931" cy="514.931" r="3.5" transform="rotate(50 220.931 514.931)" fill="#D9D9D9"/>
<circle cx="209.931" cy="389.931" r="3.5" transform="rotate(50 209.931 389.931)" fill="#D9D9D9"/>
<circle cx="205.931" cy="291.931" r="3.5" transform="rotate(50 205.931 291.931)" fill="#D9D9D9"/>
<circle cx="219.931" cy="620.931" r="3.5" transform="rotate(50 219.931 620.931)" fill="#D9D9D9"/>
<circle cx="182.931" cy="376.931" r="3.5" transform="rotate(50 182.931 376.931)" fill="#D9D9D9"/>
<circle cx="178.931" cy="278.931" r="3.5" transform="rotate(50 178.931 278.931)" fill="#D9D9D9"/>
<circle cx="192.931" cy="607.931" r="3.5" transform="rotate(50 192.931 607.931)" fill="#D9D9D9"/>
<circle cx="182.931" cy="348.931" r="3.5" transform="rotate(50 182.931 348.931)" fill="#D9D9D9"/>
<circle cx="178.931" cy="250.931" r="3.5" transform="rotate(50 178.931 250.931)" fill="#D9D9D9"/>
<circle cx="192.931" cy="579.931" r="3.5" transform="rotate(50 192.931 579.931)" fill="#D9D9D9"/>
<circle cx="118.931" cy="445.931" r="3.5" transform="rotate(50 118.931 445.931)" fill="#D9D9D9"/>
<circle cx="114.931" cy="347.931" r="3.5" transform="rotate(50 114.931 347.931)" fill="#D9D9D9"/>
<circle cx="128.931" cy="676.931" r="3.5" transform="rotate(50 128.931 676.931)" fill="#D9D9D9"/>
<circle cx="64.9309" cy="489.931" r="3.5" transform="rotate(50 64.9309 489.931)" fill="#D9D9D9"/>
<circle cx="60.9309" cy="391.931" r="3.5" transform="rotate(50 60.9309 391.931)" fill="#D9D9D9"/>
<circle cx="74.9309" cy="720.931" r="3.5" transform="rotate(50 74.9309 720.931)" fill="#D9D9D9"/>
<circle cx="218.931" cy="358.931" r="3.5" transform="rotate(50 218.931 358.931)" fill="#D9D9D9"/>
<circle cx="214.931" cy="260.931" r="3.5" transform="rotate(50 214.931 260.931)" fill="#D9D9D9"/>
<circle cx="228.931" cy="589.931" r="3.5" transform="rotate(50 228.931 589.931)" fill="#D9D9D9"/>
<circle cx="367.931" cy="473.931" r="3.5" transform="rotate(50 367.931 473.931)" fill="#D9D9D9"/>
<circle cx="363.931" cy="375.931" r="3.5" transform="rotate(50 363.931 375.931)" fill="#D9D9D9"/>
<circle cx="377.931" cy="704.931" r="3.5" transform="rotate(50 377.931 704.931)" fill="#D9D9D9"/>
<circle cx="60.9309" cy="421.931" r="3.5" transform="rotate(50 60.9309 421.931)" fill="#D9D9D9"/>
<circle cx="56.9309" cy="323.931" r="3.5" transform="rotate(50 56.9309 323.931)" fill="#D9D9D9"/>
<circle cx="70.9309" cy="652.931" r="3.5" transform="rotate(50 70.9309 652.931)" fill="#D9D9D9"/>
<circle cx="86.9309" cy="392.931" r="3.5" transform="rotate(50 86.9309 392.931)" fill="#D9D9D9"/>
<circle cx="82.9309" cy="294.931" r="3.5" transform="rotate(50 82.9309 294.931)" fill="#D9D9D9"/>
<circle cx="96.9309" cy="623.931" r="3.5" transform="rotate(50 96.9309 623.931)" fill="#D9D9D9"/>
<circle cx="320.931" cy="463.931" r="3.5" transform="rotate(50 320.931 463.931)" fill="#D9D9D9"/>
<circle cx="316.931" cy="365.931" r="3.5" transform="rotate(50 316.931 365.931)" fill="#D9D9D9"/>
<circle cx="330.931" cy="694.931" r="3.5" transform="rotate(50 330.931 694.931)" fill="#D9D9D9"/>
<circle cx="228.931" cy="483.931" r="3.5" transform="rotate(50 228.931 483.931)" fill="#D9D9D9"/>
<circle cx="224.931" cy="385.931" r="3.5" transform="rotate(50 224.931 385.931)" fill="#D9D9D9"/>
<circle cx="238.931" cy="714.931" r="3.5" transform="rotate(50 238.931 714.931)" fill="#D9D9D9"/>
<circle cx="367.931" cy="315.931" r="3.5" transform="rotate(50 367.931 315.931)" fill="#D9D9D9"/>
<circle cx="363.931" cy="217.931" r="3.5" transform="rotate(50 363.931 217.931)" fill="#D9D9D9"/>
<circle cx="377.931" cy="546.931" r="3.5" transform="rotate(50 377.931 546.931)" fill="#D9D9D9"/>
<circle cx="373.931" cy="440.931" r="3.5" transform="rotate(50 373.931 440.931)" fill="#D9D9D9"/>
<circle cx="369.931" cy="342.931" r="3.5" transform="rotate(50 369.931 342.931)" fill="#D9D9D9"/>
<circle cx="383.931" cy="671.931" r="3.5" transform="rotate(50 383.931 671.931)" fill="#D9D9D9"/>
<circle cx="339.931" cy="439.931" r="3.5" transform="rotate(50 339.931 439.931)" fill="#D9D9D9"/>
<circle cx="335.931" cy="341.931" r="3.5" transform="rotate(50 335.931 341.931)" fill="#D9D9D9"/>
<circle cx="349.931" cy="670.931" r="3.5" transform="rotate(50 349.931 670.931)" fill="#D9D9D9"/>
<circle cx="95.7433" cy="495.743" r="3.5" transform="rotate(85.8674 95.7433 495.743)" fill="#D9D9D9"/>
<circle cx="91.7433" cy="397.743" r="3.5" transform="rotate(85.8674 91.7433 397.743)" fill="#D9D9D9"/>
<circle cx="105.743" cy="726.743" r="3.5" transform="rotate(85.8674 105.743 726.743)" fill="#D9D9D9"/>
<circle cx="147.743" cy="470.743" r="3.5" transform="rotate(85.8674 147.743 470.743)" fill="#D9D9D9"/>
<circle cx="143.743" cy="372.743" r="3.5" transform="rotate(85.8674 143.743 372.743)" fill="#D9D9D9"/>
<circle cx="157.743" cy="701.743" r="3.5" transform="rotate(85.8674 157.743 701.743)" fill="#D9D9D9"/>
<circle cx="38.7433" cy="382.743" r="3.5" transform="rotate(85.8674 38.7433 382.743)" fill="#D9D9D9"/>
<circle cx="34.7433" cy="284.743" r="3.5" transform="rotate(85.8674 34.7433 284.743)" fill="#D9D9D9"/>
<circle cx="48.7433" cy="613.743" r="3.5" transform="rotate(85.8674 48.7433 613.743)" fill="#D9D9D9"/>
<ellipse cx="228" cy="311.5" rx="3" ry="3.5" transform="rotate(50 228 311.5)" fill="#D9D9D9"/>
<ellipse cx="224" cy="213.5" rx="3" ry="3.5" transform="rotate(50 224 213.5)" fill="#D9D9D9"/>
<ellipse cx="238" cy="542.5" rx="3" ry="3.5" transform="rotate(50 238 542.5)" fill="#D9D9D9"/>
<circle cx="219.5" cy="298.5" r="3.5" transform="rotate(50 219.5 298.5)" fill="#D9D9D9"/>
<circle cx="215.5" cy="200.5" r="3.5" transform="rotate(50 215.5 200.5)" fill="#D9D9D9"/>
<circle cx="229.5" cy="529.5" r="3.5" transform="rotate(50 229.5 529.5)" fill="#D9D9D9"/>
<circle cx="234.5" cy="291.5" r="3.5" transform="rotate(50 234.5 291.5)" fill="#D9D9D9"/>
<circle cx="230.5" cy="193.5" r="3.5" transform="rotate(50 230.5 193.5)" fill="#D9D9D9"/>
<circle cx="244.5" cy="522.5" r="3.5" transform="rotate(50 244.5 522.5)" fill="#D9D9D9"/>
<circle cx="245.931" cy="281.931" r="3.5" transform="rotate(50 245.931 281.931)" fill="#D9D9D9"/>
<circle cx="241.931" cy="183.931" r="3.5" transform="rotate(50 241.931 183.931)" fill="#D9D9D9"/>
<circle cx="255.931" cy="512.931" r="3.5" transform="rotate(50 255.931 512.931)" fill="#D9D9D9"/>
<circle cx="266.931" cy="288.931" r="3.5" transform="rotate(50 266.931 288.931)" fill="#D9D9D9"/>
<circle cx="262.931" cy="190.931" r="3.5" transform="rotate(50 262.931 190.931)" fill="#D9D9D9"/>
<circle cx="276.931" cy="519.931" r="3.5" transform="rotate(50 276.931 519.931)" fill="#D9D9D9"/>
<circle cx="272.931" cy="313.931" r="3.5" transform="rotate(50 272.931 313.931)" fill="#D9D9D9"/>
<circle cx="268.931" cy="215.931" r="3.5" transform="rotate(50 268.931 215.931)" fill="#D9D9D9"/>
<circle cx="282.931" cy="544.931" r="3.5" transform="rotate(50 282.931 544.931)" fill="#D9D9D9"/>
<circle cx="251.931" cy="320.931" r="3.5" transform="rotate(50 251.931 320.931)" fill="#D9D9D9"/>
<circle cx="247.931" cy="222.931" r="3.5" transform="rotate(50 247.931 222.931)" fill="#D9D9D9"/>
<circle cx="261.931" cy="551.931" r="3.5" transform="rotate(50 261.931 551.931)" fill="#D9D9D9"/>
<circle cx="278.931" cy="361.931" r="3.5" transform="rotate(50 278.931 361.931)" fill="#D9D9D9"/>
<circle cx="274.931" cy="263.931" r="3.5" transform="rotate(50 274.931 263.931)" fill="#D9D9D9"/>
<circle cx="288.931" cy="592.931" r="3.5" transform="rotate(50 288.931 592.931)" fill="#D9D9D9"/>
<circle cx="83.9309" cy="330.931" r="3.5" transform="rotate(50 83.9309 330.931)" fill="#D9D9D9"/>
<circle cx="79.9309" cy="232.931" r="3.5" transform="rotate(50 79.9309 232.931)" fill="#D9D9D9"/>
<circle cx="93.9309" cy="561.931" r="3.5" transform="rotate(50 93.9309 561.931)" fill="#D9D9D9"/>
<circle cx="158.931" cy="309.931" r="3.5" transform="rotate(50 158.931 309.931)" fill="#D9D9D9"/>
<circle cx="154.931" cy="211.931" r="3.5" transform="rotate(50 154.931 211.931)" fill="#D9D9D9"/>
<circle cx="168.931" cy="540.931" r="3.5" transform="rotate(50 168.931 540.931)" fill="#D9D9D9"/>
<line x1="113.989" y1="503.5" x2="160.989" y2="502.5" stroke="white"/>
<line x1="158.521" y1="500.855" x2="178.521" y2="434.855" stroke="white"/>
<line x1="178.829" y1="435.53" x2="321.829" y2="383.53" stroke="white"/>
<circle cx="114.931" cy="503.931" r="3.5" transform="rotate(50 114.931 503.931)" fill="#D9D9D9"/>
</g>
<defs>
<clipPath id="clip0_250_189">
<rect width="412" height="892" rx="18" fill="white"/>
</clipPath>
</defs>
</svg>
