<svg width="356" height="242" viewBox="0 0 356 242" fill="none" xmlns="http://www.w3.org/2000/svg">
<path d="M131.186 172.629H129V165H131.23C131.87 165 132.421 165.153 132.88 165.458C133.342 165.761 133.697 166.197 133.945 166.766C134.193 167.335 134.317 168.015 134.317 168.807C134.317 169.602 134.192 170.285 133.942 170.856C133.694 171.427 133.336 171.865 132.868 172.171C132.402 172.477 131.841 172.629 131.186 172.629ZM130.169 171.433H131.129C131.578 171.433 131.953 171.337 132.254 171.143C132.554 170.947 132.78 170.655 132.931 170.267C133.082 169.878 133.157 169.391 133.157 168.807C133.157 168.224 133.082 167.739 132.931 167.354C132.78 166.967 132.556 166.678 132.26 166.486C131.966 166.293 131.601 166.196 131.164 166.196H130.169V171.433ZM135.427 172.629V165H137.896C138.362 165 138.75 165.087 139.058 165.261C139.369 165.432 139.601 165.667 139.754 165.965C139.91 166.263 139.987 166.601 139.987 166.978C139.987 167.289 139.937 167.554 139.836 167.775C139.735 167.994 139.6 168.172 139.43 168.308C139.26 168.445 139.07 168.543 138.86 168.602V168.677C139.089 168.692 139.308 168.775 139.518 168.926C139.73 169.075 139.903 169.286 140.038 169.56C140.172 169.833 140.239 170.163 140.239 170.55C140.239 170.946 140.158 171.3 139.997 171.616C139.835 171.929 139.592 172.176 139.266 172.357C138.941 172.539 138.531 172.629 138.038 172.629H135.427ZM136.595 171.474H137.852C138.276 171.474 138.582 171.379 138.768 171.188C138.957 170.994 139.052 170.746 139.052 170.443C139.052 170.216 139.005 170.013 138.91 169.832C138.816 169.648 138.681 169.504 138.507 169.399C138.333 169.293 138.125 169.239 137.883 169.239H136.595V171.474ZM136.595 168.245H137.751C137.953 168.245 138.134 168.201 138.296 168.114C138.458 168.025 138.585 167.899 138.677 167.738C138.772 167.574 138.819 167.38 138.819 167.157C138.819 166.861 138.731 166.618 138.554 166.427C138.38 166.235 138.121 166.14 137.776 166.14H136.595V168.245Z" fill="black"/>
<path d="M34.7379 185.596L36.4166 191.601H36.4828L38.1584 185.596H39.4434L37.1694 193.225H35.7269L33.4561 185.596H34.7379ZM40.293 193.225V185.596H41.4615V188.825H44.4504V185.596H45.6221V193.225H44.4504V189.984H41.4615V193.225H40.293ZM46.8929 193.225V185.596H48.0614V188.825H51.0503V185.596H52.222V193.225H51.0503V189.984H48.0614V193.225H46.8929Z" fill="black"/>
<path d="M238.927 114.919C238.927 115.741 238.797 116.445 238.537 117.031C238.279 117.615 237.926 118.062 237.479 118.372C237.034 118.683 236.528 118.838 235.964 118.838C235.399 118.838 234.893 118.683 234.446 118.372C234 118.059 233.648 117.611 233.387 117.027C233.129 116.441 233 115.739 233 114.919C233 114.097 233.129 113.394 233.387 112.81C233.648 112.224 234 111.776 234.446 111.466C234.893 111.155 235.399 111 235.964 111C236.528 111 237.034 111.155 237.479 111.466C237.926 111.776 238.279 112.224 238.537 112.81C238.797 113.394 238.927 114.097 238.927 114.919ZM237.753 114.919C237.753 114.34 237.676 113.852 237.523 113.455C237.372 113.055 237.162 112.753 236.893 112.55C236.624 112.344 236.314 112.24 235.964 112.24C235.613 112.24 235.303 112.344 235.034 112.55C234.766 112.753 234.555 113.055 234.402 113.455C234.25 113.852 234.175 114.34 234.175 114.919C234.175 115.498 234.25 115.987 234.402 116.387C234.555 116.784 234.766 117.086 235.034 117.292C235.303 117.495 235.613 117.597 235.964 117.597C236.314 117.597 236.624 117.495 236.893 117.292C237.162 117.086 237.372 116.784 237.523 116.387C237.676 115.987 237.753 115.498 237.753 114.919ZM240.549 111.104L242.227 117.109H242.293L243.969 111.104H245.254L242.98 118.734H241.538L239.267 111.104H240.549ZM246.178 118.734H244.931L247.202 111.104H248.645L250.919 118.734H249.671L247.949 112.669H247.898L246.178 118.734ZM246.22 115.742H249.621V116.852H246.22V115.742Z" fill="black"/>
<path d="M200.563 35.2391L202.242 41.244H202.308L203.984 35.2391H205.269L202.995 42.8682H201.552L199.281 35.2391H200.563ZM206.981 35.2391L208.66 41.244H208.726L210.402 35.2391H211.687L209.413 42.8682H207.97L205.699 35.2391H206.981ZM216.042 37.3363C216.012 37.011 215.888 36.7577 215.67 36.5764C215.454 36.3951 215.172 36.3045 214.826 36.3045C214.582 36.3045 214.373 36.3479 214.199 36.4349C214.025 36.5218 213.892 36.6397 213.799 36.7887C213.707 36.9377 213.66 37.1079 213.657 37.2991C213.657 37.458 213.688 37.5959 213.749 37.7126C213.812 37.8293 213.897 37.9286 214.004 38.0106C214.111 38.0901 214.23 38.1571 214.36 38.2118C214.49 38.2664 214.621 38.3123 214.754 38.3496L215.358 38.5284C215.602 38.5954 215.836 38.6861 216.061 38.8003C216.287 38.9146 216.49 39.0586 216.669 39.2324C216.849 39.4063 216.992 39.6161 217.097 39.862C217.202 40.1079 217.254 40.3959 217.254 40.7262C217.254 41.1732 217.158 41.5669 216.964 41.9071C216.771 42.2449 216.492 42.5094 216.127 42.7006C215.763 42.8893 215.324 42.9837 214.807 42.9837C214.305 42.9837 213.87 42.8918 213.5 42.708C213.132 42.5243 212.845 42.256 212.637 41.9034C212.431 41.5507 212.32 41.1211 212.303 40.6145H213.453C213.47 40.8802 213.539 41.1012 213.661 41.2776C213.782 41.4539 213.941 41.5855 214.136 41.6724C214.334 41.7594 214.554 41.8028 214.798 41.8028C215.052 41.8028 215.274 41.7581 215.465 41.6687C215.658 41.5768 215.81 41.4502 215.919 41.2887C216.028 41.1248 216.084 40.9336 216.086 40.7151C216.084 40.5164 216.034 40.3525 215.938 40.2233C215.841 40.0917 215.706 39.9825 215.532 39.8955C215.359 39.8061 215.158 39.7266 214.927 39.6571L214.193 39.4336C213.662 39.2722 213.242 39.0276 212.933 38.6997C212.626 38.3695 212.473 37.9311 212.473 37.3848C212.473 36.9353 212.576 36.5416 212.782 36.2039C212.99 35.8661 213.272 35.6041 213.629 35.4179C213.986 35.2291 214.39 35.1348 214.842 35.1348C215.3 35.1348 215.701 35.2291 216.045 35.4179C216.391 35.6041 216.663 35.8637 216.861 36.1964C217.058 36.5267 217.16 36.9067 217.166 37.3363H216.042Z" fill="black"/>
<path d="M263 200.734V193.104H265.471C265.937 193.104 266.323 193.191 266.631 193.365C266.942 193.536 267.176 193.771 267.329 194.069C267.484 194.367 267.56 194.705 267.56 195.083C267.56 195.393 267.511 195.659 267.41 195.88C267.309 196.098 267.173 196.276 267.003 196.412C266.833 196.549 266.644 196.647 266.434 196.706V196.781C266.663 196.796 266.883 196.879 267.092 197.031C267.304 197.18 267.477 197.391 267.612 197.664C267.745 197.937 267.814 198.267 267.814 198.655C267.814 199.05 267.733 199.405 267.57 199.72C267.41 200.033 267.166 200.28 266.841 200.462C266.516 200.643 266.104 200.734 265.612 200.734H263ZM264.17 199.579H265.427C265.85 199.579 266.156 199.483 266.343 199.292C266.53 199.098 266.627 198.85 266.627 198.547C266.627 198.321 266.58 198.117 266.484 197.936C266.39 197.752 266.255 197.608 266.082 197.504C265.907 197.397 265.698 197.343 265.456 197.343H264.17V199.579ZM264.17 196.349H265.326C265.528 196.349 265.708 196.306 265.87 196.219C266.03 196.129 266.158 196.004 266.252 195.842C266.346 195.678 266.392 195.485 266.392 195.261C266.392 194.966 266.304 194.722 266.129 194.531C265.954 194.34 265.695 194.244 265.35 194.244H264.17V196.349ZM269.694 193.104L271.372 199.109H271.438L273.113 193.104H274.397L272.123 200.734H270.682L268.41 193.104H269.694ZM279.223 195.541C279.169 195.34 279.098 195.159 279.004 195C278.915 194.839 278.807 194.701 278.679 194.587C278.551 194.473 278.408 194.387 278.243 194.33C278.08 194.27 277.9 194.24 277.708 194.24C277.361 194.24 277.053 194.344 276.782 194.55C276.511 194.756 276.296 195.059 276.141 195.459C275.988 195.856 275.912 196.34 275.912 196.912C275.912 197.488 275.988 197.976 276.141 198.376C276.296 198.775 276.508 199.08 276.782 199.288C277.055 199.494 277.371 199.597 277.733 199.597C278.06 199.597 278.344 199.523 278.583 199.374C278.824 199.225 279.011 199.014 279.139 198.741C279.27 198.465 279.337 198.142 279.337 197.772L279.6 197.82H277.849V196.74H280.467V197.656C280.467 198.31 280.349 198.875 280.113 199.351C279.879 199.828 279.556 200.196 279.144 200.454C278.733 200.71 278.26 200.838 277.725 200.838C277.132 200.838 276.609 200.68 276.161 200.365C275.715 200.047 275.365 199.596 275.111 199.013C274.863 198.426 274.737 197.731 274.737 196.926C274.737 196.31 274.811 195.76 274.959 195.276C275.106 194.792 275.316 194.381 275.582 194.043C275.848 193.703 276.161 193.445 276.521 193.268C276.88 193.089 277.27 193 277.691 193C278.048 193 278.381 193.062 278.691 193.186C278.999 193.308 279.273 193.482 279.512 193.708C279.753 193.934 279.953 194.202 280.108 194.513C280.263 194.823 280.364 195.166 280.413 195.541H279.223Z" fill="black"/>
<path d="M294.798 43.9793H296.229L298.144 49.5075H298.22L300.134 43.9793H301.563V51.6085H300.442V46.3671H300.383L298.599 51.5861H297.762L295.98 46.356H295.919V51.6085H294.798V43.9793ZM303.699 43.9793L305.377 49.9843H305.443L307.119 43.9793H308.405L306.131 51.6085H304.687L302.418 43.9793H303.699ZM313.229 46.4156C313.177 46.2144 313.103 46.0344 313.012 45.8754C312.921 45.714 312.812 45.5762 312.684 45.4619C312.558 45.3477 312.413 45.262 312.25 45.2049C312.085 45.1453 311.908 45.1155 311.713 45.1155C311.368 45.1155 311.058 45.2185 310.787 45.4247C310.516 45.6308 310.304 45.9338 310.149 46.3336C309.996 46.731 309.92 47.2152 309.92 47.7864C309.92 48.3626 309.996 48.8506 310.149 49.2504C310.302 49.6502 310.516 49.9545 310.787 50.1631C311.061 50.3692 311.378 50.4723 311.738 50.4723C312.066 50.4723 312.349 50.3978 312.59 50.2488C312.832 50.0997 313.017 49.8887 313.147 49.6155C313.278 49.3398 313.342 49.017 313.342 48.6469L313.608 48.6954H311.856V47.6151H314.473V48.5315C314.473 49.1846 314.354 49.7496 314.12 50.2264C313.886 50.7032 313.561 51.0708 313.15 51.3291C312.738 51.5848 312.265 51.7128 311.733 51.7128C311.139 51.7128 310.617 51.5551 310.169 51.2397C309.72 50.9218 309.37 50.471 309.119 49.8874C308.868 49.3013 308.745 48.606 308.745 47.8013C308.745 47.1854 308.819 46.6353 308.964 46.1511C309.114 45.6668 309.321 45.2558 309.587 44.9181C309.856 44.5778 310.169 44.3195 310.526 44.1432C310.886 43.9644 311.277 43.875 311.699 43.875C312.056 43.875 312.388 43.9371 312.696 44.0613C313.004 44.1829 313.28 44.3568 313.519 44.5828C313.761 44.8088 313.958 45.077 314.113 45.3874C314.268 45.6979 314.372 46.0406 314.419 46.4156H313.229Z" fill="black"/>
<path d="M340.225 126.778C342.741 126.778 344.778 124.367 344.778 121.392C344.778 118.417 342.741 116.006 340.225 116.006C337.71 116.006 335.67 118.417 335.67 121.392C335.67 124.367 337.71 126.778 340.225 126.778Z" fill="black"/>
<path d="M346.732 128.318H333.719C333.029 128.318 332.366 128.643 331.878 129.22C331.391 129.797 331.117 130.58 331.117 131.396V146.785H335.02V134.474H335.67V165.252H339.9V147.555H340.551V165.252H344.778V134.474H345.429V146.785H349.334V131.396C349.334 130.58 349.058 129.797 348.57 129.22C348.082 128.643 347.422 128.318 346.732 128.318Z" fill="black"/>
<path d="M346.951 116.005V115.737C346.953 115.213 347.002 114.788 347.098 114.46C347.195 114.132 347.333 113.856 347.517 113.631C347.707 113.402 347.939 113.184 348.215 112.975C348.421 112.816 348.596 112.649 348.737 112.474C348.88 112.295 348.986 112.099 349.06 111.888C349.136 111.672 349.173 111.439 349.173 111.187C349.173 110.829 349.101 110.517 348.959 110.248C348.818 109.98 348.628 109.773 348.387 109.627C348.146 109.479 347.879 109.404 347.586 109.404C347.305 109.404 347.044 109.477 346.8 109.623C346.559 109.765 346.362 109.977 346.209 110.258C346.056 110.536 345.975 110.881 345.96 111.291H345.167C345.182 110.745 345.295 110.271 345.512 109.871C345.726 109.47 346.014 109.161 346.377 108.942C346.736 108.72 347.14 108.609 347.586 108.609C348.049 108.609 348.458 108.724 348.811 108.952C349.166 109.177 349.441 109.487 349.639 109.881C349.838 110.271 349.937 110.72 349.937 111.227C349.937 111.561 349.892 111.866 349.804 112.141C349.712 112.416 349.579 112.669 349.4 112.901C349.222 113.132 349.003 113.351 348.737 113.556C348.483 113.755 348.284 113.952 348.136 114.147C347.988 114.343 347.882 114.566 347.815 114.818C347.751 115.066 347.717 115.373 347.712 115.737V116.005H346.951ZM347.355 118.995C347.19 118.995 347.047 118.925 346.926 118.786C346.808 118.644 346.749 118.475 346.749 118.28C346.749 118.081 346.808 117.912 346.926 117.773C347.047 117.634 347.19 117.565 347.355 117.565C347.52 117.565 347.66 117.634 347.778 117.773C347.899 117.912 347.958 118.081 347.958 118.28C347.958 118.409 347.931 118.528 347.875 118.637C347.823 118.747 347.749 118.835 347.658 118.901C347.567 118.964 347.466 118.995 347.355 118.995Z" fill="black"/>
<path d="M322.412 126.607L315.021 119.031" stroke="black"/>
<path d="M323.716 138.588L303.514 136.84" stroke="black"/>
<path d="M323.322 147.578L313.714 159.234" stroke="black"/>
<path d="M82.767 115.364V127H80.6591V117.415H80.5909L77.8693 119.153V117.222L80.7614 115.364H82.767ZM90.0227 127.222C89.0871 127.222 88.2841 126.985 87.6136 126.511C86.947 126.034 86.4337 125.347 86.0739 124.449C85.7178 123.547 85.5398 122.462 85.5398 121.193C85.5436 119.924 85.7235 118.845 86.0795 117.955C86.4394 117.061 86.9527 116.379 87.6193 115.909C88.2898 115.439 89.0909 115.205 90.0227 115.205C90.9545 115.205 91.7557 115.439 92.4261 115.909C93.0966 116.379 93.6098 117.061 93.9659 117.955C94.3258 118.848 94.5057 119.928 94.5057 121.193C94.5057 122.466 94.3258 123.553 93.9659 124.455C93.6098 125.352 93.0966 126.038 92.4261 126.511C91.7595 126.985 90.9583 127.222 90.0227 127.222ZM90.0227 125.443C90.75 125.443 91.3239 125.085 91.7443 124.369C92.1686 123.65 92.3807 122.591 92.3807 121.193C92.3807 120.269 92.2841 119.492 92.0909 118.864C91.8977 118.235 91.625 117.761 91.2727 117.443C90.9205 117.121 90.5038 116.96 90.0227 116.96C89.2992 116.96 88.7273 117.32 88.3068 118.04C87.8864 118.756 87.6742 119.807 87.6705 121.193C87.6667 122.121 87.7595 122.902 87.9489 123.534C88.142 124.167 88.4148 124.644 88.767 124.966C89.1193 125.284 89.5379 125.443 90.0227 125.443ZM100.695 127.222C99.759 127.222 98.956 126.985 98.2855 126.511C97.6188 126.034 97.1056 125.347 96.7457 124.449C96.3897 123.547 96.2116 122.462 96.2116 121.193C96.2154 119.924 96.3954 118.845 96.7514 117.955C97.1113 117.061 97.6245 116.379 98.2912 115.909C98.9616 115.439 99.7628 115.205 100.695 115.205C101.626 115.205 102.428 115.439 103.098 115.909C103.768 116.379 104.282 117.061 104.638 117.955C104.998 118.848 105.178 119.928 105.178 121.193C105.178 122.466 104.998 123.553 104.638 124.455C104.282 125.352 103.768 126.038 103.098 126.511C102.431 126.985 101.63 127.222 100.695 127.222ZM100.695 125.443C101.422 125.443 101.996 125.085 102.416 124.369C102.84 123.65 103.053 122.591 103.053 121.193C103.053 120.269 102.956 119.492 102.763 118.864C102.57 118.235 102.297 117.761 101.945 117.443C101.592 117.121 101.176 116.96 100.695 116.96C99.9711 116.96 99.3991 117.32 98.9787 118.04C98.5582 118.756 98.3461 119.807 98.3423 121.193C98.3385 122.121 98.4313 122.902 98.6207 123.534C98.8139 124.167 99.0866 124.644 99.4389 124.966C99.7912 125.284 100.21 125.443 100.695 125.443ZM110.52 125.136V117.273H112.304V125.136H110.52ZM107.48 122.097V120.312H115.344V122.097H107.48ZM121.913 127V115.364H126.368C127.209 115.364 127.908 115.496 128.464 115.761C129.025 116.023 129.444 116.381 129.72 116.835C130 117.29 130.141 117.805 130.141 118.381C130.141 118.854 130.05 119.259 129.868 119.597C129.686 119.93 129.442 120.201 129.135 120.409C128.828 120.617 128.485 120.767 128.107 120.858V120.972C128.519 120.994 128.915 121.121 129.294 121.352C129.677 121.58 129.989 121.902 130.232 122.318C130.474 122.735 130.595 123.239 130.595 123.83C130.595 124.432 130.449 124.973 130.158 125.455C129.866 125.932 129.427 126.309 128.839 126.585C128.252 126.862 127.514 127 126.624 127H121.913ZM124.021 125.239H126.288C127.054 125.239 127.605 125.093 127.942 124.801C128.283 124.506 128.453 124.127 128.453 123.665C128.453 123.32 128.368 123.009 128.197 122.733C128.027 122.453 127.785 122.233 127.47 122.074C127.156 121.911 126.781 121.83 126.345 121.83H124.021V125.239ZM124.021 120.312H126.107C126.47 120.312 126.798 120.246 127.089 120.114C127.381 119.977 127.61 119.786 127.777 119.54C127.947 119.29 128.033 118.994 128.033 118.653C128.033 118.203 127.874 117.831 127.555 117.54C127.241 117.248 126.773 117.102 126.152 117.102H124.021V120.312ZM139.764 115.364H141.872V122.966C141.872 123.799 141.675 124.532 141.281 125.165C140.891 125.797 140.342 126.292 139.634 126.648C138.925 127 138.098 127.176 137.151 127.176C136.2 127.176 135.37 127 134.662 126.648C133.954 126.292 133.404 125.797 133.014 125.165C132.624 124.532 132.429 123.799 132.429 122.966V115.364H134.537V122.79C134.537 123.275 134.643 123.706 134.855 124.085C135.071 124.464 135.374 124.761 135.764 124.977C136.154 125.189 136.616 125.295 137.151 125.295C137.685 125.295 138.147 125.189 138.537 124.977C138.931 124.761 139.234 124.464 139.446 124.085C139.658 123.706 139.764 123.275 139.764 122.79V115.364ZM150.487 118.562C150.434 118.066 150.211 117.68 149.817 117.403C149.427 117.127 148.919 116.989 148.294 116.989C147.855 116.989 147.478 117.055 147.163 117.188C146.849 117.32 146.608 117.5 146.442 117.727C146.275 117.955 146.19 118.214 146.186 118.506C146.186 118.748 146.241 118.958 146.351 119.136C146.464 119.314 146.618 119.466 146.811 119.591C147.004 119.712 147.218 119.814 147.453 119.898C147.688 119.981 147.925 120.051 148.163 120.108L149.254 120.381C149.694 120.483 150.116 120.621 150.521 120.795C150.93 120.97 151.296 121.189 151.618 121.455C151.944 121.72 152.201 122.04 152.391 122.415C152.58 122.79 152.675 123.229 152.675 123.733C152.675 124.415 152.5 125.015 152.152 125.534C151.804 126.049 151.3 126.453 150.641 126.744C149.985 127.032 149.192 127.176 148.26 127.176C147.355 127.176 146.569 127.036 145.902 126.756C145.239 126.475 144.72 126.066 144.345 125.528C143.974 124.991 143.773 124.335 143.743 123.562H145.817C145.847 123.968 145.972 124.305 146.192 124.574C146.411 124.843 146.697 125.044 147.05 125.176C147.406 125.309 147.804 125.375 148.243 125.375C148.701 125.375 149.103 125.307 149.447 125.17C149.796 125.03 150.069 124.837 150.266 124.591C150.463 124.341 150.563 124.049 150.567 123.716C150.563 123.413 150.474 123.163 150.3 122.966C150.125 122.765 149.881 122.598 149.567 122.466C149.256 122.33 148.893 122.208 148.476 122.102L147.152 121.761C146.194 121.515 145.436 121.142 144.879 120.642C144.326 120.138 144.05 119.47 144.05 118.636C144.05 117.951 144.235 117.35 144.607 116.835C144.982 116.32 145.491 115.92 146.135 115.636C146.779 115.348 147.508 115.205 148.322 115.205C149.148 115.205 149.872 115.348 150.493 115.636C151.118 115.92 151.608 116.316 151.964 116.824C152.321 117.328 152.504 117.907 152.516 118.562H150.487ZM154.554 127V115.364H156.662V125.233H161.787V127H154.554ZM165.724 115.364V127H163.616V115.364H165.724ZM177.57 115.364V127H175.695L170.212 119.074H170.115V127H168.007V115.364H169.893L175.371 123.295H175.473V115.364H177.57ZM179.866 127V115.364H187.435V117.131H181.974V120.29H187.043V122.057H181.974V125.233H187.48V127H179.866ZM195.909 118.562C195.856 118.066 195.633 117.68 195.239 117.403C194.848 117.127 194.341 116.989 193.716 116.989C193.277 116.989 192.9 117.055 192.585 117.188C192.271 117.32 192.03 117.5 191.864 117.727C191.697 117.955 191.612 118.214 191.608 118.506C191.608 118.748 191.663 118.958 191.773 119.136C191.886 119.314 192.04 119.466 192.233 119.591C192.426 119.712 192.64 119.814 192.875 119.898C193.11 119.981 193.347 120.051 193.585 120.108L194.676 120.381C195.116 120.483 195.538 120.621 195.943 120.795C196.352 120.97 196.718 121.189 197.04 121.455C197.366 121.72 197.623 122.04 197.812 122.415C198.002 122.79 198.097 123.229 198.097 123.733C198.097 124.415 197.922 125.015 197.574 125.534C197.225 126.049 196.722 126.453 196.062 126.744C195.407 127.032 194.614 127.176 193.682 127.176C192.777 127.176 191.991 127.036 191.324 126.756C190.661 126.475 190.142 126.066 189.767 125.528C189.396 124.991 189.195 124.335 189.165 123.562H191.239C191.269 123.968 191.394 124.305 191.614 124.574C191.833 124.843 192.119 125.044 192.472 125.176C192.828 125.309 193.225 125.375 193.665 125.375C194.123 125.375 194.525 125.307 194.869 125.17C195.218 125.03 195.491 124.837 195.688 124.591C195.884 124.341 195.985 124.049 195.989 123.716C195.985 123.413 195.896 123.163 195.722 122.966C195.547 122.765 195.303 122.598 194.989 122.466C194.678 122.33 194.314 122.208 193.898 122.102L192.574 121.761C191.616 121.515 190.858 121.142 190.301 120.642C189.748 120.138 189.472 119.47 189.472 118.636C189.472 117.951 189.657 117.35 190.028 116.835C190.403 116.32 190.913 115.92 191.557 115.636C192.201 115.348 192.93 115.205 193.744 115.205C194.57 115.205 195.294 115.348 195.915 115.636C196.54 115.92 197.03 116.316 197.386 116.824C197.742 117.328 197.926 117.907 197.938 118.562H195.909Z" fill="black"/>
<path d="M164 221.313V213.928H166.419C166.915 213.928 167.33 214.026 167.666 214.223C168.004 214.421 168.259 214.697 168.432 215.053C168.606 215.406 168.693 215.818 168.693 216.29C168.693 216.763 168.605 217.174 168.428 217.523C168.254 217.869 167.997 218.137 167.657 218.327C167.317 218.515 166.899 218.608 166.403 218.608H164.68V217.498H166.246C166.536 217.498 166.773 217.452 166.958 217.361C167.142 217.267 167.279 217.131 167.367 216.953C167.457 216.773 167.502 216.552 167.502 216.29C167.502 216.028 167.457 215.804 167.367 215.619C167.277 215.431 167.139 215.29 166.954 215.193C166.77 215.095 166.531 215.046 166.239 215.046H165.169V221.313H164ZM167.332 217.966L168.929 221.313H167.625L166.057 217.966H167.332ZM169.768 213.928H171.198L173.113 219.279H173.189L175.104 213.928H176.534V221.313H175.413V216.239H175.353L173.57 221.291H172.732L170.95 216.228H170.89V221.313H169.768V213.928ZM178.669 213.928L180.348 219.741H180.414L182.09 213.928H183.375L181.101 221.313H179.658L177.387 213.928H178.669Z" fill="black"/>
<path d="M28.512 28.2678C28.4826 27.9529 28.3587 27.7077 28.1403 27.5322C27.9241 27.3567 27.6427 27.269 27.2962 27.269C27.0527 27.269 26.8438 27.3111 26.6695 27.3952C26.4952 27.4794 26.3619 27.5935 26.2695 27.7378C26.1771 27.882 26.1299 28.0467 26.1278 28.2318C26.1278 28.3856 26.1582 28.5191 26.2191 28.632C26.2821 28.745 26.3671 28.8412 26.4742 28.9205C26.5813 28.9975 26.6999 29.0624 26.8301 29.1153C26.9603 29.1681 27.0915 29.2126 27.2238 29.2487L27.8285 29.4217C28.0721 29.4867 28.3062 29.5744 28.5309 29.685C28.7576 29.7956 28.9603 29.935 29.1387 30.1033C29.3193 30.2716 29.4621 30.4747 29.5671 30.7127C29.6721 30.9507 29.7246 31.2295 29.7246 31.5493C29.7246 31.982 29.628 32.363 29.4348 32.6924C29.2416 33.0193 28.9624 33.2753 28.597 33.4604C28.2338 33.6431 27.7939 33.7345 27.2773 33.7345C26.7755 33.7345 26.3398 33.6455 25.9703 33.4676C25.6028 33.2897 25.3152 33.0301 25.1073 32.6888C24.9015 32.3474 24.7902 31.9315 24.7734 31.4411H25.923C25.9398 31.6983 26.0091 31.9123 26.1309 32.083C26.2527 32.2536 26.4112 32.381 26.6065 32.4652C26.8039 32.5493 27.0243 32.5914 27.2679 32.5914C27.522 32.5914 27.7445 32.5481 27.9356 32.4616C28.1288 32.3726 28.28 32.25 28.3892 32.0938C28.4983 31.9351 28.554 31.75 28.5561 31.5385C28.554 31.3461 28.5046 31.1875 28.408 31.0625C28.3115 30.9351 28.176 30.8293 28.0018 30.7451C27.8296 30.6586 27.628 30.5817 27.397 30.5144L26.6632 30.298C26.132 30.1417 25.712 29.905 25.4034 29.5876C25.0968 29.2679 24.9435 28.8436 24.9435 28.3147C24.9435 27.8796 25.0464 27.4986 25.2522 27.1716C25.46 26.8447 25.7425 26.5911 26.0994 26.4108C26.4564 26.2281 26.8606 26.1367 27.312 26.1367C27.7697 26.1367 28.1708 26.2281 28.5151 26.4108C28.8616 26.5911 29.1335 26.8423 29.3309 27.1644C29.5283 27.4841 29.6301 27.852 29.6364 28.2678H28.512ZM34.2718 28.2678C34.2424 27.9529 34.1185 27.7077 33.9001 27.5322C33.6838 27.3567 33.4025 27.269 33.056 27.269C32.8125 27.269 32.6036 27.3111 32.4293 27.3952C32.255 27.4794 32.1217 27.5935 32.0293 27.7378C31.9369 27.882 31.8897 28.0467 31.8875 28.2318C31.8875 28.3856 31.918 28.5191 31.9789 28.632C32.0419 28.745 32.1269 28.8412 32.234 28.9205C32.3411 28.9975 32.4597 29.0624 32.5899 29.1153C32.7201 29.1681 32.8513 29.2126 32.9836 29.2487L33.5883 29.4217C33.8319 29.4867 34.066 29.5744 34.2907 29.685C34.5174 29.7956 34.7201 29.935 34.8985 30.1033C35.0791 30.2716 35.2219 30.4747 35.3269 30.7127C35.4319 30.9507 35.4844 31.2295 35.4844 31.5493C35.4844 31.982 35.3878 32.363 35.1946 32.6924C35.0014 33.0193 34.7222 33.2753 34.3568 33.4604C33.9936 33.6431 33.5537 33.7345 33.0371 33.7345C32.5353 33.7345 32.0996 33.6455 31.7301 33.4676C31.3626 33.2897 31.0749 33.0301 30.8671 32.6888C30.6613 32.3474 30.55 31.9315 30.5332 31.4411H31.6828C31.6996 31.6983 31.7689 31.9123 31.8907 32.083C32.0125 32.2536 32.171 32.381 32.3663 32.4652C32.5636 32.5493 32.7841 32.5914 33.0277 32.5914C33.2817 32.5914 33.5043 32.5481 33.6954 32.4616C33.8886 32.3726 34.0397 32.25 34.1489 32.0938C34.2581 31.9351 34.3138 31.75 34.3159 31.5385C34.3138 31.3461 34.2644 31.1875 34.1678 31.0625C34.0713 30.9351 33.9358 30.8293 33.7615 30.7451C33.5894 30.6586 33.3878 30.5817 33.1568 30.5144L32.423 30.298C31.8917 30.1417 31.4718 29.905 31.1631 29.5876C30.8566 29.2679 30.7033 28.8436 30.7033 28.3147C30.7033 27.8796 30.8062 27.4986 31.012 27.1716C31.2198 26.8447 31.5022 26.5911 31.8592 26.4108C32.2161 26.2281 32.6204 26.1367 33.0718 26.1367C33.5295 26.1367 33.9306 26.2281 34.2749 26.4108C34.6214 26.5911 34.8933 26.8423 35.0907 27.1644C35.288 27.4841 35.3899 27.852 35.3962 28.2678H34.2718ZM36.5261 33.6227V26.2377H38.9953C39.4615 26.2377 39.8489 26.3218 40.1576 26.4901C40.4683 26.656 40.7003 26.8832 40.8536 27.1716C41.009 27.4601 41.0867 27.7871 41.0867 28.1524C41.0867 28.453 41.0363 28.7102 40.9355 28.9241C40.8347 29.1357 40.6993 29.3076 40.5292 29.4398C40.3591 29.572 40.1691 29.667 39.9591 29.7247V29.7968C40.188 29.8112 40.4074 29.8917 40.6174 30.0384C40.8294 30.1826 41.0027 30.3869 41.1371 30.6514C41.2714 30.9158 41.3386 31.2355 41.3386 31.6106C41.3386 31.9928 41.2578 32.3366 41.0961 32.6419C40.9344 32.9448 40.6909 33.184 40.3654 33.3595C40.04 33.5349 39.6305 33.6227 39.1371 33.6227H36.5261ZM37.6946 32.5048H38.9512C39.3754 32.5048 39.6809 32.4123 39.8678 32.2272C40.0568 32.0397 40.1512 31.7993 40.1512 31.506C40.1512 31.2872 40.104 31.0901 40.0095 30.9146C39.915 30.7367 39.7806 30.5973 39.6064 30.4963C39.4321 30.393 39.2242 30.3413 38.9828 30.3413H37.6946V32.5048ZM37.6946 29.3785H38.8505C39.052 29.3785 39.2337 29.3364 39.3953 29.2523C39.557 29.1657 39.6841 29.0443 39.7764 28.8881C39.8709 28.7294 39.9182 28.5419 39.9182 28.3256C39.9182 28.0395 39.83 27.8039 39.6536 27.6188C39.4793 27.4337 39.22 27.3411 38.8757 27.3411H37.6946V29.3785Z" fill="black"/>
<path d="M107.657 70.5454C107.657 71.3411 107.527 72.0226 107.266 72.5901C107.008 73.1551 106.655 73.5878 106.208 73.8882C105.763 74.1886 105.258 74.3389 104.693 74.3389C104.128 74.3389 103.622 74.1886 103.175 73.8882C102.73 73.5853 102.377 73.1515 102.117 72.5865C101.859 72.0192 101.729 71.3389 101.729 70.5454C101.729 69.7497 101.859 69.0694 102.117 68.5044C102.377 67.9372 102.73 67.5034 103.175 67.2027C103.622 66.9023 104.128 66.7519 104.693 66.7519C105.258 66.7519 105.763 66.9023 106.208 67.2027C106.655 67.5034 107.008 67.9372 107.266 68.5044C107.527 69.0694 107.657 69.7497 107.657 70.5454ZM106.482 70.5454C106.482 69.9853 106.406 69.5131 106.252 69.1283C106.101 68.7413 105.891 68.4491 105.622 68.252C105.354 68.0525 105.044 67.9527 104.693 67.9527C104.342 67.9527 104.033 68.0525 103.764 68.252C103.495 68.4491 103.284 68.7413 103.131 69.1283C102.98 69.5131 102.904 69.9853 102.904 70.5454C102.904 71.1056 102.98 71.5792 103.131 71.9662C103.284 72.3509 103.495 72.6429 103.764 72.8426C104.033 73.0395 104.342 73.1382 104.693 73.1382C105.044 73.1382 105.354 73.0395 105.622 72.8426C105.891 72.6429 106.101 72.3509 106.252 71.9662C106.406 71.5792 106.482 71.1056 106.482 70.5454ZM112.535 70.1632L111.495 70.293C111.466 70.1728 111.415 70.06 111.341 69.9539C111.27 69.8485 111.173 69.763 111.051 69.6981C110.93 69.6332 110.781 69.6008 110.604 69.6008C110.367 69.6008 110.167 69.6595 110.006 69.7774C109.846 69.8953 109.767 70.0479 109.769 70.2354C109.767 70.3965 109.819 70.5274 109.924 70.6284C110.031 70.7293 110.207 70.8123 110.453 70.8772L111.278 71.0791C111.736 71.1922 112.076 71.3713 112.299 71.6164C112.523 71.8616 112.637 72.1826 112.639 72.5791C112.637 72.9278 112.547 73.2355 112.371 73.5023C112.197 73.7669 111.954 73.9734 111.644 74.1226C111.333 74.2715 110.976 74.3463 110.573 74.3463C109.981 74.3463 109.504 74.2044 109.143 73.9206C108.781 73.6346 108.566 73.2366 108.497 72.7269L109.609 72.6045C109.659 72.8544 109.766 73.0431 109.93 73.1706C110.094 73.2981 110.307 73.3616 110.569 73.3616C110.84 73.3616 111.058 73.2981 111.222 73.1706C111.387 73.0431 111.47 72.8857 111.47 72.6982C111.47 72.5396 111.417 72.4085 111.31 72.3052C111.205 72.2017 111.041 72.1225 110.818 72.0672L109.993 71.8689C109.529 71.7583 109.186 71.5719 108.963 71.3098C108.741 71.0455 108.63 70.7113 108.632 70.3074C108.63 69.9661 108.711 69.6705 108.875 69.4203C109.041 69.1681 109.271 68.9732 109.565 68.8361C109.861 68.6968 110.202 68.6271 110.588 68.6271C111.155 68.6271 111.601 68.7653 111.927 69.0417C112.255 69.3182 112.457 69.6922 112.535 70.1632ZM115.995 68.6993V69.7088H113.214V68.6993H115.995ZM113.9 67.3722H115.04V72.5721C115.04 72.7475 115.063 72.8821 115.11 72.976C115.158 73.0671 115.221 73.1297 115.299 73.1633C115.376 73.1971 115.462 73.2138 115.557 73.2138C115.628 73.2138 115.693 73.2079 115.752 73.1957C115.813 73.1839 115.859 73.1729 115.891 73.1633L116.083 74.1838C116.022 74.2078 115.935 74.2343 115.821 74.2631C115.71 74.2921 115.574 74.3088 115.412 74.3136C115.126 74.3234 114.869 74.2741 114.64 74.1658C114.411 74.0552 114.23 73.8845 114.095 73.6538C113.963 73.4231 113.898 73.1345 113.9 72.7884V67.3722ZM118.34 74.3497C118.034 74.3497 117.758 74.2873 117.512 74.1624C117.268 74.0349 117.075 73.8473 116.932 73.5997C116.792 73.352 116.721 73.0468 116.721 72.6838C116.721 72.3713 116.772 72.1129 116.873 71.9084C116.973 71.7042 117.111 71.5409 117.285 71.4182C117.46 71.2955 117.656 71.2029 117.874 71.1403C118.095 71.0754 118.322 71.0286 118.558 70.9998C118.841 70.9663 119.071 70.9361 119.247 70.9096C119.424 70.8808 119.552 70.8377 119.631 70.7798C119.714 70.7198 119.754 70.6272 119.754 70.5023V70.4806C119.754 70.2089 119.684 69.9985 119.543 69.8496C119.403 69.7004 119.2 69.6259 118.935 69.6259C118.656 69.6259 118.435 69.6956 118.271 69.8352C118.109 69.9745 118 70.1393 117.943 70.3291L116.879 70.1559C116.963 69.8194 117.102 69.5382 117.295 69.3122C117.488 69.0838 117.724 68.9131 118.003 68.8003C118.283 68.6846 118.591 68.6271 118.929 68.6271C119.162 68.6271 119.394 68.6584 119.625 68.7208C119.856 68.7834 120.067 68.8866 120.258 69.031C120.449 69.1729 120.603 69.3664 120.718 69.6115C120.836 69.8566 120.895 70.1632 120.895 70.5311V74.238H119.799V73.4772H119.761C119.691 73.631 119.594 73.7751 119.468 73.9099C119.344 74.0419 119.188 74.1491 118.999 74.2306C118.812 74.3102 118.592 74.3497 118.34 74.3497ZM118.636 73.3906C118.865 73.3906 119.064 73.3387 119.232 73.2355C119.4 73.1297 119.529 72.9904 119.619 72.8172C119.711 72.644 119.758 72.4553 119.758 72.2511V71.5984C119.722 71.632 119.661 71.6633 119.575 71.692C119.491 71.7211 119.396 71.7462 119.292 71.7679C119.187 71.7896 119.083 71.8088 118.98 71.8255C118.877 71.8424 118.787 71.8568 118.712 71.8689C118.542 71.8954 118.39 71.9386 118.255 71.9986C118.121 72.0587 118.015 72.1428 117.937 72.2511C117.859 72.3569 117.821 72.494 117.821 72.6621C117.821 72.9027 117.897 73.084 118.051 73.2067C118.204 73.3291 118.399 73.3906 118.636 73.3906ZM123.181 66.8529V74.238H122.041V66.8529H123.181ZM124.404 74.238V66.8529H125.544V69.6152H125.591C125.65 69.4806 125.733 69.3374 125.84 69.1859C125.947 69.0322 126.092 68.9013 126.275 68.793C126.458 68.6824 126.691 68.6271 126.974 68.6271C127.348 68.6271 127.685 68.7365 127.985 68.9551C128.287 69.1715 128.527 69.4925 128.703 69.9181C128.882 70.3412 128.971 70.8605 128.971 71.4757C128.971 72.0841 128.884 72.6009 128.709 73.0265C128.535 73.4518 128.298 73.7765 127.998 73.9999C127.697 74.2236 127.357 74.3353 126.977 74.3353C126.7 74.3353 126.47 74.2825 126.287 74.1768C126.105 74.071 125.958 73.9435 125.847 73.7946C125.737 73.6431 125.652 73.5001 125.591 73.3653H125.525V74.238H124.404ZM125.522 71.4686C125.522 71.8269 125.566 72.1405 125.654 72.4096C125.745 72.679 125.874 72.8894 126.042 73.0409C126.212 73.1898 126.418 73.2643 126.659 73.2643C126.911 73.2643 127.122 73.1876 127.292 73.0335C127.462 72.8773 127.59 72.6646 127.676 72.3952C127.765 72.1236 127.809 71.8147 127.809 71.4686C127.809 71.1248 127.766 70.8196 127.68 70.5528C127.594 70.2859 127.465 70.0766 127.295 69.9252C127.125 69.7737 126.913 69.6981 126.659 69.6981C126.415 69.6981 126.209 69.7714 126.039 69.9181C125.869 70.0648 125.739 70.2701 125.651 70.5347C125.565 70.799 125.522 71.1104 125.522 71.4686ZM129.99 66.8529H131.42L133.335 72.2043H133.411L135.326 66.8529H136.756V74.238H135.634V69.1644H135.575L133.792 74.2163H132.954L131.172 69.1534H131.112V74.238H129.99V66.8529ZM140.088 74.3463C139.616 74.3463 139.206 74.2272 138.86 73.9892C138.513 73.7511 138.244 73.4183 138.054 72.9904C137.864 72.5625 137.77 72.0624 137.77 71.4904C137.77 70.918 137.864 70.4168 138.054 69.9867C138.244 69.5562 138.513 69.222 138.86 68.9842C139.206 68.7461 139.616 68.6271 140.088 68.6271C140.561 68.6271 140.97 68.7461 141.316 68.9842C141.663 69.222 141.931 69.5562 142.12 69.9867C142.311 70.4168 142.406 70.918 142.406 71.4904C142.406 72.0624 142.311 72.5625 142.12 72.9904C141.931 73.4183 141.663 73.7511 141.316 73.9892C140.97 74.2272 140.561 74.3463 140.088 74.3463ZM140.094 73.3004C140.35 73.3004 140.565 73.22 140.737 73.0589C140.909 72.8953 141.037 72.6764 141.121 72.4026C141.207 72.1284 141.25 71.8232 141.25 71.4867C141.25 71.1477 141.207 70.841 141.121 70.5672C141.037 70.2907 140.909 70.0707 140.737 69.9071C140.565 69.7438 140.35 69.662 140.094 69.662C139.832 69.662 139.614 69.7438 139.439 69.9071C139.267 70.0707 139.138 70.2907 139.052 70.5672C138.968 70.841 138.926 71.1477 138.926 71.4867C138.926 71.8232 138.968 72.1284 139.052 72.4026C139.138 72.6764 139.267 72.8953 139.439 73.0589C139.614 73.22 139.832 73.3004 140.094 73.3004ZM143.424 74.238V66.8529H144.564V69.6152H144.612C144.67 69.4806 144.753 69.3374 144.86 69.1859C144.968 69.0322 145.112 68.9013 145.295 68.793C145.478 68.6824 145.711 68.6271 145.994 68.6271C146.368 68.6271 146.705 68.7365 147.005 68.9551C147.308 69.1715 147.547 69.4925 147.723 69.9181C147.902 70.3412 147.991 70.8605 147.991 71.4757C147.991 72.0841 147.904 72.6009 147.73 73.0265C147.555 73.4518 147.318 73.7765 147.018 73.9999C146.718 74.2236 146.378 74.3353 145.997 74.3353C145.72 74.3353 145.49 74.2825 145.308 74.1768C145.125 74.071 144.978 73.9435 144.867 73.7946C144.758 73.6431 144.672 73.5001 144.612 73.3653H144.546V74.238H143.424ZM144.542 71.4686C144.542 71.8269 144.586 72.1405 144.675 72.4096C144.765 72.679 144.894 72.8894 145.062 73.0409C145.232 73.1898 145.438 73.2643 145.679 73.2643C145.931 73.2643 146.142 73.1876 146.313 73.0335C146.483 72.8773 146.611 72.6646 146.697 72.3952C146.785 72.1236 146.829 71.8147 146.829 71.4686C146.829 71.1248 146.786 70.8196 146.7 70.5528C146.614 70.2859 146.486 70.0766 146.315 69.9252C146.145 69.7737 145.933 69.6981 145.679 69.6981C145.436 69.6981 145.229 69.7714 145.059 69.9181C144.889 70.0648 144.76 70.2701 144.671 70.5347C144.585 70.799 144.542 71.1104 144.542 71.4686ZM148.96 74.238V68.6993H150.101V74.238H148.96ZM149.534 67.9132C149.353 67.9132 149.198 67.8447 149.067 67.7076C148.937 67.5682 148.872 67.401 148.872 67.2063C148.872 67.0092 148.937 66.8422 149.067 66.7051C149.198 66.5658 149.353 66.4961 149.534 66.4961C149.716 66.4961 149.872 66.5658 150 66.7051C150.13 66.8422 150.195 67.0092 150.195 67.2063C150.195 67.401 150.13 67.5682 150 67.7076C149.872 67.8447 149.716 67.9132 149.534 67.9132ZM152.413 66.8529V74.238H151.273V66.8529H152.413Z" fill="black"/>
</svg>
