<svg width="356" height="176" viewBox="0 0 356 176" fill="none" xmlns="http://www.w3.org/2000/svg">
<g clip-path="url(#clip0_652_1442)">
<path d="M100.137 127.92H97.9512V120.291H100.181C100.822 120.291 101.372 120.444 101.831 120.749C102.293 121.052 102.648 121.488 102.896 122.057C103.144 122.626 103.268 123.306 103.268 124.098C103.268 124.893 103.143 125.576 102.893 126.147C102.645 126.718 102.287 127.156 101.819 127.462C101.353 127.768 100.792 127.92 100.137 127.92ZM99.1197 126.724H100.08C100.53 126.724 100.905 126.628 101.205 126.434C101.505 126.238 101.731 125.946 101.882 125.558C102.033 125.169 102.109 124.682 102.109 124.098C102.109 123.515 102.033 123.03 101.882 122.645C101.731 122.258 101.507 121.969 101.211 121.777C100.917 121.584 100.552 121.487 100.115 121.487H99.1197V126.724ZM104.378 127.92V120.291H106.847C107.313 120.291 107.701 120.378 108.009 120.552C108.32 120.723 108.552 120.958 108.706 121.256C108.861 121.554 108.939 121.892 108.939 122.269C108.939 122.58 108.888 122.845 108.787 123.066C108.687 123.285 108.551 123.463 108.381 123.599C108.211 123.736 108.021 123.834 107.811 123.893V123.968C108.04 123.983 108.259 124.066 108.469 124.218C108.681 124.366 108.855 124.577 108.989 124.851C109.123 125.124 109.19 125.454 109.19 125.841C109.19 126.237 109.11 126.591 108.948 126.907C108.786 127.22 108.543 127.467 108.217 127.648C107.892 127.83 107.482 127.92 106.989 127.92H104.378ZM105.546 126.765H106.803C107.227 126.765 107.533 126.67 107.72 126.479C107.909 126.285 108.003 126.037 108.003 125.734C108.003 125.507 107.956 125.304 107.862 125.123C107.767 124.939 107.633 124.795 107.458 124.69C107.284 124.584 107.076 124.53 106.835 124.53H105.546V126.765ZM105.546 123.536H106.702C106.904 123.536 107.085 123.492 107.247 123.405C107.409 123.316 107.536 123.19 107.628 123.029C107.723 122.865 107.77 122.671 107.77 122.448C107.77 122.152 107.682 121.909 107.506 121.718C107.331 121.527 107.072 121.431 106.727 121.431H105.546V123.536Z" fill="black"/>
<path d="M34.7379 150.596L36.4166 156.601H36.4828L38.1584 150.596H39.4434L37.1694 158.225H35.7269L33.4561 150.596H34.7379ZM40.293 158.225V150.596H41.4615V153.825H44.4504V150.596H45.6221V158.225H44.4504V154.984H41.4615V158.225H40.293ZM46.8929 158.225V150.596H48.0614V153.825H51.0503V150.596H52.222V158.225H51.0503V154.984H48.0614V158.225H46.8929Z" fill="black"/>
<path d="M28.512 5.2504C28.4826 4.92506 28.3587 4.67176 28.1403 4.49048C27.9241 4.30918 27.6427 4.21853 27.2962 4.21853C27.0527 4.21853 26.8438 4.262 26.6695 4.34893C26.4952 4.43585 26.3619 4.5538 26.2695 4.70282C26.1771 4.85181 26.1299 5.02192 26.1278 5.21316C26.1278 5.37209 26.1582 5.50991 26.2191 5.62665C26.2821 5.74338 26.3671 5.84271 26.4742 5.92465C26.5813 6.00414 26.6999 6.07119 26.8301 6.12583C26.9603 6.18046 27.0915 6.22641 27.2238 6.26365L27.8285 6.44245C28.0721 6.5095 28.3062 6.60015 28.5309 6.71441C28.7576 6.82863 28.9603 6.97267 29.1387 7.14651C29.3193 7.32035 29.4621 7.53021 29.5671 7.77606C29.6721 8.02193 29.7246 8.31 29.7246 8.6403C29.7246 9.08732 29.628 9.48096 29.4348 9.82118C29.2416 10.1589 28.9624 10.4234 28.597 10.6146C28.2338 10.8034 27.7939 10.8978 27.2773 10.8978C26.7755 10.8978 26.3398 10.8059 25.9703 10.6221C25.6028 10.4383 25.3152 10.1701 25.1073 9.81746C24.9015 9.46481 24.7902 9.03519 24.7734 8.52855H25.923C25.9398 8.7943 26.0091 9.01532 26.1309 9.19164C26.2527 9.36796 26.4112 9.49958 26.6065 9.5865C26.8039 9.67342 27.0243 9.7169 27.2679 9.7169C27.522 9.7169 27.7445 9.67217 27.9356 9.58277C28.1288 9.49089 28.28 9.36423 28.3892 9.2028C28.4983 9.03889 28.554 8.84768 28.5561 8.62914C28.554 8.43047 28.5046 8.26656 28.408 8.13741C28.3115 8.00579 28.176 7.89652 28.0018 7.8096C27.8296 7.7202 27.628 7.64071 27.397 7.57118L26.6632 7.34769C26.132 7.18626 25.712 6.94163 25.4034 6.61382C25.0968 6.28353 24.9435 5.84519 24.9435 5.29883C24.9435 4.84933 25.0464 4.45572 25.2522 4.11797C25.46 3.78022 25.7425 3.5182 26.0994 3.33194C26.4564 3.14321 26.8606 3.04883 27.312 3.04883C27.7697 3.04883 28.1708 3.14321 28.5151 3.33194C28.8616 3.5182 29.1335 3.77771 29.3309 4.11051C29.5283 4.4408 29.6301 4.82078 29.6364 5.2504H28.512ZM34.2718 5.2504C34.2424 4.92506 34.1185 4.67176 33.9001 4.49048C33.6838 4.30918 33.4025 4.21853 33.056 4.21853C32.8125 4.21853 32.6036 4.262 32.4293 4.34893C32.255 4.43585 32.1217 4.5538 32.0293 4.70282C31.9369 4.85181 31.8897 5.02192 31.8875 5.21316C31.8875 5.37209 31.918 5.50991 31.9789 5.62665C32.0419 5.74338 32.1269 5.84271 32.234 5.92465C32.3411 6.00414 32.4597 6.07119 32.5899 6.12583C32.7201 6.18046 32.8513 6.22641 32.9836 6.26365L33.5883 6.44245C33.8319 6.5095 34.066 6.60015 34.2907 6.71441C34.5174 6.82863 34.7201 6.97267 34.8985 7.14651C35.0791 7.32035 35.2219 7.53021 35.3269 7.77606C35.4319 8.02193 35.4844 8.31 35.4844 8.6403C35.4844 9.08732 35.3878 9.48096 35.1946 9.82118C35.0014 10.1589 34.7222 10.4234 34.3568 10.6146C33.9936 10.8034 33.5537 10.8978 33.0371 10.8978C32.5353 10.8978 32.0996 10.8059 31.7301 10.6221C31.3626 10.4383 31.0749 10.1701 30.8671 9.81746C30.6613 9.46481 30.55 9.03519 30.5332 8.52855H31.6828C31.6996 8.7943 31.7689 9.01532 31.8907 9.19164C32.0125 9.36796 32.171 9.49958 32.3663 9.5865C32.5636 9.67342 32.7841 9.7169 33.0277 9.7169C33.2817 9.7169 33.5043 9.67217 33.6954 9.58277C33.8886 9.49089 34.0397 9.36423 34.1489 9.2028C34.2581 9.03889 34.3138 8.84768 34.3159 8.62914C34.3138 8.43047 34.2644 8.26656 34.1678 8.13741C34.0713 8.00579 33.9358 7.89652 33.7615 7.8096C33.5894 7.7202 33.3878 7.64071 33.1568 7.57118L32.423 7.34769C31.8917 7.18626 31.4718 6.94163 31.1631 6.61382C30.8566 6.28353 30.7033 5.84519 30.7033 5.29883C30.7033 4.84933 30.8062 4.45572 31.012 4.11797C31.2198 3.78022 31.5022 3.5182 31.8592 3.33194C32.2161 3.14321 32.6204 3.04883 33.0718 3.04883C33.5295 3.04883 33.9306 3.14321 34.2749 3.33194C34.6214 3.5182 34.8933 3.77771 35.0907 4.11051C35.288 4.4408 35.3899 4.82078 35.3962 5.2504H34.2718ZM36.5261 10.7823V3.15315H38.9953C39.4615 3.15315 39.8489 3.24007 40.1576 3.41391C40.4683 3.58525 40.7003 3.81994 40.8536 4.11797C41.009 4.41597 41.0867 4.75373 41.0867 5.13119C41.0867 5.44164 41.0363 5.70736 40.9355 5.92838C40.8347 6.14692 40.6993 6.3245 40.5292 6.4611C40.3591 6.59768 40.1691 6.69579 39.9591 6.75538V6.82988C40.188 6.84477 40.4074 6.92797 40.6174 7.07946C40.8294 7.22848 41.0027 7.43956 41.1371 7.71274C41.2714 7.98592 41.3386 8.31621 41.3386 8.70364C41.3386 9.09851 41.2578 9.45363 41.0961 9.76903C40.9344 10.082 40.6909 10.329 40.3654 10.5104C40.04 10.6916 39.6305 10.7823 39.1371 10.7823H36.5261ZM37.6946 9.62747H38.9512C39.3754 9.62747 39.6809 9.53186 39.8678 9.34065C40.0568 9.14694 40.1512 8.89858 40.1512 8.5956C40.1512 8.36962 40.104 8.16597 40.0095 7.98467C39.915 7.80092 39.7806 7.65685 39.6064 7.55256C39.4321 7.44577 39.2242 7.39239 38.9828 7.39239H37.6946V9.62747ZM37.6946 6.39775H38.8505C39.052 6.39775 39.2337 6.35431 39.3953 6.26738C39.557 6.17799 39.6841 6.05257 39.7764 5.89114C39.8709 5.72723 39.9182 5.53352 39.9182 5.31002C39.9182 5.01449 39.83 4.77109 39.6536 4.57988C39.4793 4.38864 39.22 4.29304 38.8757 4.29304H37.6946V6.39775Z" fill="black"/>
<path d="M159.543 176V168.371H161.962C162.457 168.371 162.873 168.473 163.209 168.676C163.547 168.88 163.802 169.166 163.975 169.533C164.149 169.899 164.236 170.324 164.236 170.811C164.236 171.3 164.148 171.725 163.971 172.085C163.797 172.443 163.54 172.72 163.2 172.916C162.86 173.11 162.442 173.206 161.946 173.206H160.223V172.059H161.789C162.079 172.059 162.316 172.012 162.501 171.918C162.685 171.821 162.822 171.68 162.91 171.497C163 171.31 163.045 171.082 163.045 170.811C163.045 170.541 163 170.309 162.91 170.118C162.82 169.925 162.682 169.778 162.497 169.679C162.313 169.577 162.074 169.526 161.782 169.526H160.711V176H159.543ZM162.875 172.543L164.472 176H163.168L161.6 172.543H162.875ZM165.311 168.371H166.741L168.656 173.899H168.732L170.647 168.371H172.077V176H170.956V170.759H170.896L169.113 175.978H168.275L166.492 170.748H166.433V176H165.311V168.371ZM174.212 168.371L175.891 174.376H175.957L177.633 168.371H178.918L176.644 176H175.201L172.93 168.371H174.212Z" fill="black"/>
<path d="M227.883 89.4306C227.883 90.2526 227.753 90.9566 227.493 91.5429C227.235 92.1266 226.882 92.5736 226.435 92.8839C225.99 93.1942 225.485 93.3496 224.92 93.3496C224.355 93.3496 223.849 93.1942 223.402 92.8839C222.957 92.571 222.604 92.1228 222.343 91.5391C222.085 90.9531 221.956 90.2503 221.956 89.4306C221.956 88.6086 222.085 87.9058 222.343 87.3221C222.604 86.7361 222.957 86.288 223.402 85.9774C223.849 85.667 224.355 85.5117 224.92 85.5117C225.485 85.5117 225.99 85.667 226.435 85.9774C226.882 86.288 227.235 86.7361 227.493 87.3221C227.753 87.9058 227.883 88.6086 227.883 89.4306ZM226.709 89.4306C226.709 88.8519 226.632 88.3641 226.479 87.9667C226.328 87.5669 226.118 87.265 225.849 87.0613C225.58 86.8553 225.27 86.7522 224.92 86.7522C224.569 86.7522 224.259 86.8553 223.991 87.0613C223.722 87.265 223.511 87.5669 223.358 87.9667C223.206 88.3641 223.131 88.8519 223.131 89.4306C223.131 90.0093 223.206 90.4986 223.358 90.8984C223.511 91.2958 223.722 91.5974 223.991 91.8037C224.259 92.0071 224.569 92.1091 224.92 92.1091C225.27 92.1091 225.58 92.0071 225.849 91.8037C226.118 91.5974 226.328 91.2958 226.479 90.8984C226.632 90.4986 226.709 90.0093 226.709 89.4306ZM229.505 85.616L231.183 91.621H231.249L232.925 85.616H234.21L231.936 93.2452H230.494L228.223 85.616H229.505ZM235.134 93.2452H233.887L236.158 85.616H237.601L239.875 93.2452H238.627L236.905 87.1808H236.854L235.134 93.2452ZM235.176 90.2538H238.577V91.364H235.176V90.2538Z" fill="black"/>
<path d="M200.563 0.23907L202.242 6.24403H202.308L203.984 0.23907H205.269L202.995 7.86821H201.552L199.281 0.23907H200.563ZM206.981 0.23907L208.66 6.24403H208.726L210.402 0.23907H211.687L209.413 7.86821H207.97L205.699 0.23907H206.981ZM216.042 2.33634C216.012 2.01101 215.888 1.7577 215.67 1.57641C215.454 1.39511 215.172 1.30447 214.826 1.30447C214.582 1.30447 214.373 1.34793 214.199 1.43485C214.025 1.52177 213.892 1.63973 213.799 1.78874C213.707 1.93775 213.66 2.10786 213.657 2.29909C213.657 2.45803 213.688 2.59586 213.749 2.71258C213.812 2.8293 213.897 2.92864 214.004 3.01058C214.111 3.09007 214.23 3.15712 214.36 3.21176C214.49 3.26639 214.621 3.31235 214.754 3.34958L215.358 3.52838C215.602 3.59543 215.836 3.68608 216.061 3.80034C216.287 3.91456 216.49 4.0586 216.669 4.23244C216.849 4.40628 216.992 4.61614 217.097 4.86199C217.202 5.10787 217.254 5.39593 217.254 5.72623C217.254 6.17325 217.158 6.56689 216.964 6.90712C216.771 7.24487 216.492 7.50936 216.127 7.70057C215.763 7.88931 215.324 7.98369 214.807 7.98369C214.305 7.98369 213.87 7.89181 213.5 7.70803C213.132 7.52425 212.845 7.25603 212.637 6.90339C212.431 6.55075 212.32 6.12112 212.303 5.61448H213.453C213.47 5.88023 213.539 6.10125 213.661 6.27757C213.782 6.45389 213.941 6.58551 214.136 6.67243C214.334 6.75935 214.554 6.80283 214.798 6.80283C215.052 6.80283 215.274 6.7581 215.465 6.6687C215.658 6.57682 215.81 6.45016 215.919 6.28873C216.028 6.12482 216.084 5.93361 216.086 5.71507C216.084 5.5164 216.034 5.35249 215.938 5.22334C215.841 5.09172 215.706 4.98245 215.532 4.89553C215.359 4.80613 215.158 4.72664 214.927 4.65711L214.193 4.43362C213.662 4.27219 213.242 4.02756 212.933 3.69975C212.626 3.36946 212.473 2.93112 212.473 2.38477C212.473 1.93526 212.576 1.54164 212.782 1.20389C212.99 0.86614 213.272 0.604136 213.629 0.417879C213.986 0.229137 214.39 0.134766 214.842 0.134766C215.3 0.134766 215.701 0.229137 216.045 0.417879C216.391 0.604136 216.663 0.863657 216.861 1.19644C217.058 1.52673 217.16 1.9067 217.166 2.33634H216.042Z" fill="black"/>
<path d="M285.436 162.013V154.384H287.907C288.372 154.384 288.759 154.47 289.067 154.644C289.377 154.816 289.611 155.051 289.764 155.348C289.919 155.647 289.996 155.984 289.996 156.362C289.996 156.672 289.947 156.938 289.846 157.159C289.745 157.377 289.609 157.555 289.439 157.691C289.269 157.828 289.079 157.926 288.87 157.986V158.06C289.099 158.075 289.318 158.159 289.528 158.31C289.74 158.459 289.912 158.67 290.048 158.943C290.181 159.216 290.25 159.547 290.25 159.934C290.25 160.329 290.168 160.684 290.006 161C289.846 161.313 289.602 161.56 289.276 161.741C288.951 161.922 288.54 162.013 288.047 162.013H285.436ZM286.606 160.858H287.862C288.286 160.858 288.592 160.762 288.779 160.571C288.966 160.378 289.062 160.129 289.062 159.826C289.062 159.6 289.015 159.396 288.919 159.215C288.826 159.031 288.69 158.887 288.518 158.783C288.343 158.676 288.133 158.623 287.892 158.623H286.606V160.858ZM286.606 157.628H287.761C287.963 157.628 288.143 157.585 288.306 157.498C288.466 157.409 288.594 157.283 288.688 157.122C288.781 156.958 288.828 156.764 288.828 156.54C288.828 156.245 288.739 156.002 288.564 155.81C288.39 155.619 288.131 155.524 287.786 155.524H286.606V157.628ZM292.129 154.384L293.807 160.389H293.874L295.549 154.384H296.832L294.559 162.013H293.117L290.846 154.384H292.129ZM301.659 156.82C301.605 156.619 301.533 156.439 301.44 156.28C301.351 156.118 301.242 155.98 301.114 155.866C300.986 155.752 300.843 155.666 300.678 155.609C300.516 155.55 300.336 155.52 300.144 155.52C299.796 155.52 299.488 155.623 299.217 155.829C298.946 156.035 298.732 156.338 298.577 156.738C298.424 157.135 298.348 157.619 298.348 158.191C298.348 158.767 298.424 159.255 298.577 159.655C298.732 160.055 298.944 160.359 299.217 160.567C299.491 160.774 299.806 160.877 300.168 160.877C300.496 160.877 300.779 160.802 301.018 160.653C301.26 160.504 301.447 160.293 301.575 160.02C301.706 159.744 301.772 159.421 301.772 159.051L302.036 159.1H300.284V158.019H302.903V158.936C302.903 159.589 302.785 160.154 302.548 160.631C302.314 161.107 301.991 161.475 301.58 161.733C301.169 161.989 300.696 162.117 300.161 162.117C299.567 162.117 299.045 161.959 298.596 161.644C298.151 161.326 297.801 160.876 297.547 160.292C297.298 159.706 297.172 159.01 297.172 158.206C297.172 157.59 297.246 157.04 297.394 156.555C297.542 156.071 297.751 155.66 298.018 155.322C298.284 154.982 298.596 154.724 298.956 154.548C299.316 154.369 299.705 154.279 300.126 154.279C300.484 154.279 300.816 154.341 301.127 154.465C301.435 154.587 301.708 154.761 301.947 154.987C302.188 155.213 302.388 155.481 302.543 155.792C302.698 156.102 302.799 156.445 302.849 156.82H301.659Z" fill="black"/>
<path d="M294.798 8.97932H296.229L298.144 14.5075H298.22L300.134 8.97932H301.563V16.6085H300.442V11.3671H300.383L298.599 16.5861H297.762L295.98 11.356H295.919V16.6085H294.798V8.97932ZM303.699 8.97932L305.377 14.9843H305.443L307.119 8.97932H308.405L306.131 16.6085H304.687L302.418 8.97932H303.699ZM313.229 11.4156C313.177 11.2144 313.103 11.0344 313.012 10.8754C312.921 10.714 312.812 10.5762 312.684 10.4619C312.558 10.3477 312.413 10.262 312.25 10.2049C312.085 10.1453 311.908 10.1155 311.713 10.1155C311.368 10.1155 311.058 10.2185 310.787 10.4247C310.516 10.6308 310.304 10.9338 310.149 11.3336C309.996 11.731 309.92 12.2152 309.92 12.7864C309.92 13.3626 309.996 13.8506 310.149 14.2504C310.302 14.6502 310.516 14.9545 310.787 15.1631C311.061 15.3692 311.378 15.4723 311.738 15.4723C312.066 15.4723 312.349 15.3978 312.59 15.2488C312.832 15.0997 313.017 14.8887 313.147 14.6155C313.278 14.3398 313.342 14.017 313.342 13.6469L313.608 13.6954H311.856V12.6151H314.473V13.5315C314.473 14.1846 314.354 14.7496 314.12 15.2264C313.886 15.7032 313.561 16.0708 313.15 16.3291C312.738 16.5848 312.265 16.7128 311.733 16.7128C311.139 16.7128 310.617 16.5551 310.169 16.2397C309.72 15.9218 309.37 15.471 309.119 14.8874C308.868 14.3013 308.745 13.606 308.745 12.8013C308.745 12.1854 308.819 11.6353 308.964 11.1511C309.114 10.6668 309.321 10.2558 309.587 9.91806C309.856 9.57783 310.169 9.31955 310.526 9.14323C310.886 8.9644 311.277 8.875 311.699 8.875C312.056 8.875 312.388 8.9371 312.696 9.06126C313.004 9.18294 313.28 9.35679 313.519 9.58279C313.761 9.80879 313.958 10.077 314.113 10.3874C314.268 10.6979 314.372 11.0406 314.419 11.4156H313.229Z" fill="black"/>
<path d="M340.225 91.7783C342.741 91.7783 344.778 89.3667 344.778 86.3919C344.778 83.4174 342.741 81.0059 340.225 81.0059C337.71 81.0059 335.67 83.4174 335.67 86.3919C335.67 89.3667 337.71 91.7783 340.225 91.7783Z" fill="black"/>
<path d="M346.732 93.3184H333.719C333.029 93.3184 332.366 93.6427 331.878 94.2199C331.391 94.7972 331.117 95.5798 331.117 96.396V111.785H335.02V99.474H335.67V130.252H339.9V112.555H340.551V130.252H344.778V99.474H345.429V111.785H349.334V96.396C349.334 95.5798 349.058 94.7972 348.57 94.2199C348.082 93.6427 347.422 93.3184 346.732 93.3184Z" fill="black"/>
<path d="M346.951 81.0049V80.7368C346.953 80.2135 347.002 79.788 347.098 79.4602C347.195 79.1324 347.333 78.8559 347.517 78.6309C347.707 78.4022 347.939 78.1836 348.215 77.9753C348.421 77.8162 348.596 77.6489 348.737 77.4735C348.88 77.2946 348.986 77.0994 349.06 76.8875C349.136 76.6722 349.173 76.4388 349.173 76.187C349.173 75.8295 349.101 75.5165 348.959 75.2485C348.818 74.9801 348.628 74.7732 348.387 74.6275C348.146 74.4786 347.879 74.404 347.586 74.404C347.305 74.404 347.044 74.4768 346.8 74.6225C346.559 74.765 346.362 74.9769 346.209 75.2584C346.056 75.5363 345.975 75.8808 345.96 76.2913H345.167C345.182 75.745 345.295 75.2715 345.512 74.8708C345.726 74.4701 346.014 74.1607 346.377 73.9421C346.736 73.7201 347.14 73.6094 347.586 73.6094C348.049 73.6094 348.458 73.7236 348.811 73.952C349.166 74.177 349.441 74.4867 349.639 74.8807C349.838 75.2715 349.937 75.7202 349.937 76.2269C349.937 76.5612 349.892 76.866 349.804 77.1407C349.712 77.4155 349.579 77.6687 349.4 77.9007C349.222 78.1323 349.003 78.3509 348.737 78.5563C348.483 78.755 348.284 78.952 348.136 79.1473C347.988 79.3428 347.882 79.5663 347.815 79.8177C347.751 80.0663 347.717 80.3726 347.712 80.7368V81.0049H346.951ZM347.355 83.9951C347.19 83.9951 347.047 83.9255 346.926 83.7865C346.808 83.644 346.749 83.4753 346.749 83.2798C346.749 83.081 346.808 82.9123 346.926 82.773C347.047 82.634 347.19 82.5647 347.355 82.5647C347.52 82.5647 347.66 82.634 347.778 82.773C347.899 82.9123 347.958 83.081 347.958 83.2798C347.958 83.4088 347.931 83.528 347.875 83.6373C347.823 83.7466 347.749 83.8346 347.658 83.9007C347.567 83.9637 347.466 83.9951 347.355 83.9951Z" fill="black"/>
<path d="M322.412 91.6074L315.021 84.0312" stroke="black"/>
<path d="M323.716 103.588L303.514 101.84" stroke="black"/>
<path d="M323.322 112.578L313.714 124.234" stroke="black"/>
<path d="M107.657 48.9273C107.657 49.7494 107.527 50.4534 107.266 51.0396C107.008 51.6233 106.655 52.0703 106.208 52.3806C105.763 52.6909 105.258 52.8463 104.693 52.8463C104.128 52.8463 103.622 52.6909 103.175 52.3806C102.73 52.0677 102.377 51.6195 102.117 51.0359C101.859 50.4499 101.729 49.747 101.729 48.9273C101.729 48.1053 101.859 47.4025 102.117 46.8188C102.377 46.2329 102.73 45.7847 103.175 45.4741C103.622 45.1637 104.128 45.0084 104.693 45.0084C105.258 45.0084 105.763 45.1637 106.208 45.4741C106.655 45.7847 107.008 46.2329 107.266 46.8188C107.527 47.4025 107.657 48.1053 107.657 48.9273ZM106.482 48.9273C106.482 48.3486 106.406 47.8609 106.252 47.4634C106.101 47.0636 105.891 46.7617 105.622 46.558C105.354 46.352 105.044 46.2489 104.693 46.2489C104.342 46.2489 104.033 46.352 103.764 46.558C103.495 46.7617 103.284 47.0636 103.131 47.4634C102.98 47.8609 102.904 48.3486 102.904 48.9273C102.904 49.506 102.98 49.9953 103.131 50.3951C103.284 50.7925 103.495 51.0941 103.764 51.3004C104.033 51.5038 104.342 51.6058 104.693 51.6058C105.044 51.6058 105.354 51.5038 105.622 51.3004C105.891 51.0941 106.101 50.7925 106.252 50.3951C106.406 49.9953 106.482 49.506 106.482 48.9273ZM112.535 48.5325L111.495 48.6666C111.466 48.5424 111.415 48.4259 111.341 48.3163C111.27 48.2073 111.173 48.119 111.051 48.052C110.93 47.985 110.781 47.9515 110.604 47.9515C110.367 47.9515 110.167 48.0121 110.006 48.1339C109.846 48.2557 109.767 48.4133 109.769 48.6071C109.767 48.7735 109.819 48.9087 109.924 49.013C110.031 49.1173 110.207 49.203 110.453 49.27L111.278 49.4787C111.736 49.5955 112.076 49.7805 112.299 50.0338C112.523 50.287 112.637 50.6186 112.639 51.0283C112.637 51.3884 112.547 51.7063 112.371 51.982C112.197 52.2553 111.954 52.4686 111.644 52.6228C111.333 52.7766 110.976 52.8538 110.573 52.8538C109.981 52.8538 109.504 52.7073 109.143 52.4141C108.781 52.1187 108.566 51.7075 108.497 51.181L109.609 51.0545C109.659 51.3127 109.766 51.5076 109.93 51.6393C110.094 51.771 110.307 51.8366 110.569 51.8366C110.84 51.8366 111.058 51.771 111.222 51.6393C111.387 51.5076 111.47 51.345 111.47 51.1512C111.47 50.9875 111.417 50.852 111.31 50.7453C111.205 50.6384 111.041 50.5565 110.818 50.4994L109.993 50.2946C109.529 50.1803 109.186 49.9877 108.963 49.717C108.741 49.444 108.63 49.0987 108.632 48.6814C108.63 48.3288 108.711 48.0235 108.875 47.765C109.041 47.5045 109.271 47.3031 109.565 47.1615C109.861 47.0176 110.202 46.9456 110.588 46.9456C111.155 46.9456 111.601 47.0884 111.927 47.3739C112.255 47.6595 112.457 48.0459 112.535 48.5325ZM115.995 47.0202V48.0631H113.214V47.0202H115.995ZM113.9 45.6492H115.04V51.021C115.04 51.2022 115.063 51.3412 115.11 51.4383C115.158 51.5324 115.221 51.5971 115.299 51.6317C115.376 51.6667 115.462 51.6839 115.557 51.6839C115.628 51.6839 115.693 51.6778 115.752 51.6653C115.813 51.653 115.859 51.6417 115.891 51.6317L116.083 52.686C116.022 52.7108 115.935 52.7382 115.821 52.7679C115.71 52.7979 115.574 52.8151 115.412 52.82C115.126 52.8302 114.869 52.7792 114.64 52.6673C114.411 52.5531 114.23 52.3768 114.095 52.1385C113.963 51.9001 113.898 51.602 113.9 51.2445V45.6492ZM118.34 52.8573C118.034 52.8573 117.758 52.7929 117.512 52.6638C117.268 52.5321 117.075 52.3384 116.932 52.0825C116.792 51.8267 116.721 51.5114 116.721 51.1364C116.721 50.8135 116.772 50.5466 116.873 50.3353C116.973 50.1244 117.111 49.9557 117.285 49.8289C117.46 49.7022 117.656 49.6066 117.874 49.5419C118.095 49.4749 118.322 49.4265 118.558 49.3968C118.841 49.3621 119.071 49.3309 119.247 49.3035C119.424 49.2738 119.552 49.2292 119.631 49.1695C119.714 49.1074 119.754 49.0119 119.754 48.8828V48.8603C119.754 48.5797 119.684 48.3623 119.543 48.2085C119.403 48.0543 119.2 47.9774 118.935 47.9774C118.656 47.9774 118.435 48.0494 118.271 48.1936C118.109 48.3376 118 48.5077 117.943 48.7039L116.879 48.5249C116.963 48.1773 117.102 47.8868 117.295 47.6534C117.488 47.4174 117.724 47.2411 118.003 47.1245C118.283 47.005 118.591 46.9456 118.929 46.9456C119.162 46.9456 119.394 46.9779 119.625 47.0423C119.856 47.107 120.067 47.2137 120.258 47.3629C120.449 47.5094 120.603 47.7093 120.718 47.9626C120.836 48.2158 120.895 48.5325 120.895 48.9125V52.7419H119.799V51.9561H119.761C119.691 52.1149 119.594 52.2638 119.468 52.4031C119.344 52.5394 119.188 52.6502 118.999 52.7344C118.812 52.8165 118.592 52.8573 118.34 52.8573ZM118.636 51.8666C118.865 51.8666 119.064 51.813 119.232 51.7063C119.4 51.5971 119.529 51.4531 119.619 51.2742C119.711 51.0953 119.758 50.9004 119.758 50.6894V50.0151C119.722 50.0498 119.661 50.0821 119.575 50.1119C119.491 50.1419 119.396 50.1678 119.292 50.1902C119.187 50.2127 119.083 50.2325 118.98 50.2497C118.877 50.2672 118.787 50.282 118.712 50.2946C118.542 50.3219 118.39 50.3665 118.255 50.4286C118.121 50.4907 118.015 50.5775 117.937 50.6894C117.859 50.7987 117.821 50.9403 117.821 51.1139C117.821 51.3625 117.897 51.5499 118.051 51.6766C118.204 51.8031 118.399 51.8666 118.636 51.8666ZM123.181 45.1127V52.7419H122.041V45.1127H123.181ZM124.404 52.7419V45.1127H125.544V47.9663H125.591C125.65 47.8273 125.733 47.6793 125.84 47.5228C125.947 47.364 126.092 47.2288 126.275 47.1169C126.458 47.0027 126.691 46.9456 126.974 46.9456C127.348 46.9456 127.685 47.0587 127.985 47.2845C128.287 47.508 128.527 47.8396 128.703 48.2793C128.882 48.7164 128.971 49.2528 128.971 49.8884C128.971 50.5169 128.884 51.0507 128.709 51.4904C128.535 51.9298 128.298 52.2652 127.998 52.496C127.697 52.7271 127.357 52.8425 126.977 52.8425C126.7 52.8425 126.47 52.788 126.287 52.6787C126.105 52.5694 125.958 52.4377 125.847 52.2839C125.737 52.1274 125.652 51.9797 125.591 51.8404H125.525V52.7419H124.404ZM125.522 49.8811C125.522 50.2511 125.566 50.5752 125.654 50.8532C125.745 51.1314 125.874 51.3488 126.042 51.5053C126.212 51.6591 126.418 51.7361 126.659 51.7361C126.911 51.7361 127.122 51.6568 127.292 51.4977C127.462 51.3363 127.59 51.1166 127.676 50.8383C127.765 50.5577 127.809 50.2386 127.809 49.8811C127.809 49.5259 127.766 49.2106 127.68 48.9349C127.594 48.6593 127.465 48.4431 127.295 48.2866C127.125 48.1301 126.913 48.052 126.659 48.052C126.415 48.052 126.209 48.1278 126.039 48.2793C125.869 48.4308 125.739 48.643 125.651 48.9163C125.565 49.1893 125.522 49.511 125.522 49.8811ZM129.99 45.1127H131.42L133.335 50.641H133.411L135.326 45.1127H136.756V52.7419H135.634V47.5007H135.575L133.792 52.7195H132.954L131.172 47.4893H131.112V52.7419H129.99V45.1127ZM140.088 52.8538C139.616 52.8538 139.206 52.7309 138.86 52.4849C138.513 52.239 138.244 51.8952 138.054 51.4531C137.864 51.0111 137.77 50.4944 137.77 49.9035C137.77 49.3123 137.864 48.7945 138.054 48.3501C138.244 47.9054 138.513 47.5601 138.86 47.3145C139.206 47.0686 139.616 46.9456 140.088 46.9456C140.561 46.9456 140.97 47.0686 141.316 47.3145C141.663 47.5601 141.931 47.9054 142.12 48.3501C142.311 48.7945 142.406 49.3123 142.406 49.9035C142.406 50.4944 142.311 51.0111 142.12 51.4531C141.931 51.8952 141.663 52.239 141.316 52.4849C140.97 52.7309 140.561 52.8538 140.088 52.8538ZM140.094 51.7734C140.35 51.7734 140.565 51.6903 140.737 51.5239C140.909 51.3549 141.037 51.1288 141.121 50.8459C141.207 50.5626 141.25 50.2473 141.25 49.8997C141.25 49.5495 141.207 49.2327 141.121 48.9498C141.037 48.6642 140.909 48.4369 140.737 48.2679C140.565 48.0992 140.35 48.0147 140.094 48.0147C139.832 48.0147 139.614 48.0992 139.439 48.2679C139.267 48.4369 139.138 48.6642 139.052 48.9498C138.968 49.2327 138.926 49.5495 138.926 49.8997C138.926 50.2473 138.968 50.5626 139.052 50.8459C139.138 51.1288 139.267 51.3549 139.439 51.5239C139.614 51.6903 139.832 51.7734 140.094 51.7734ZM143.424 52.7419V45.1127H144.564V47.9663H144.612C144.67 47.8273 144.753 47.6793 144.86 47.5228C144.968 47.364 145.112 47.2288 145.295 47.1169C145.478 47.0027 145.711 46.9456 145.994 46.9456C146.368 46.9456 146.705 47.0587 147.005 47.2845C147.308 47.508 147.547 47.8396 147.723 48.2793C147.902 48.7164 147.991 49.2528 147.991 49.8884C147.991 50.5169 147.904 51.0507 147.73 51.4904C147.555 51.9298 147.318 52.2652 147.018 52.496C146.718 52.7271 146.378 52.8425 145.997 52.8425C145.72 52.8425 145.49 52.788 145.308 52.6787C145.125 52.5694 144.978 52.4377 144.867 52.2839C144.758 52.1274 144.672 51.9797 144.612 51.8404H144.546V52.7419H143.424ZM144.542 49.8811C144.542 50.2511 144.586 50.5752 144.675 50.8532C144.765 51.1314 144.894 51.3488 145.062 51.5053C145.232 51.6591 145.438 51.7361 145.679 51.7361C145.931 51.7361 146.142 51.6568 146.313 51.4977C146.483 51.3363 146.611 51.1166 146.697 50.8383C146.785 50.5577 146.829 50.2386 146.829 49.8811C146.829 49.5259 146.786 49.2106 146.7 48.9349C146.614 48.6593 146.486 48.4431 146.315 48.2866C146.145 48.1301 145.933 48.052 145.679 48.052C145.436 48.052 145.229 48.1278 145.059 48.2793C144.889 48.4308 144.76 48.643 144.671 48.9163C144.585 49.1893 144.542 49.511 144.542 49.8811ZM148.96 52.7419V47.0202H150.101V52.7419H148.96ZM149.534 46.2081C149.353 46.2081 149.198 46.1373 149.067 45.9957C148.937 45.8517 148.872 45.6789 148.872 45.4779C148.872 45.2742 148.937 45.1017 149.067 44.9601C149.198 44.8161 149.353 44.7441 149.534 44.7441C149.716 44.7441 149.872 44.8161 150 44.9601C150.13 45.1017 150.195 45.2742 150.195 45.4779C150.195 45.6789 150.13 45.8517 150 45.9957C149.872 46.1373 149.716 46.2081 149.534 46.2081ZM152.413 45.1127V52.7419H151.273V45.1127H152.413Z" fill="black"/>
<path d="M122.148 95V83.3636H126.602C127.443 83.3636 128.142 83.4962 128.699 83.7614C129.259 84.0227 129.678 84.3807 129.955 84.8352C130.235 85.2898 130.375 85.8049 130.375 86.3807C130.375 86.8542 130.284 87.2595 130.102 87.5966C129.92 87.9299 129.676 88.2008 129.369 88.4091C129.062 88.6174 128.72 88.767 128.341 88.858V88.9716C128.754 88.9943 129.15 89.1212 129.528 89.3523C129.911 89.5795 130.223 89.9015 130.466 90.3182C130.708 90.7348 130.83 91.2386 130.83 91.8295C130.83 92.4318 130.684 92.9735 130.392 93.4545C130.1 93.9318 129.661 94.3087 129.074 94.5852C128.487 94.8617 127.748 95 126.858 95H122.148ZM124.256 93.2386H126.523C127.288 93.2386 127.839 93.0928 128.176 92.8011C128.517 92.5057 128.688 92.1269 128.688 91.6648C128.688 91.3201 128.602 91.0095 128.432 90.733C128.261 90.4527 128.019 90.233 127.705 90.0739C127.39 89.911 127.015 89.8295 126.58 89.8295H124.256V93.2386ZM124.256 88.3125H126.341C126.705 88.3125 127.032 88.2462 127.324 88.1136C127.616 87.9773 127.845 87.786 128.011 87.5398C128.182 87.2898 128.267 86.9943 128.267 86.6534C128.267 86.2027 128.108 85.8314 127.79 85.5398C127.475 85.2481 127.008 85.1023 126.386 85.1023H124.256V88.3125ZM139.999 83.3636H142.107V90.9659C142.107 91.7992 141.91 92.5322 141.516 93.1648C141.125 93.7973 140.576 94.2917 139.868 94.6477C139.16 95 138.332 95.1761 137.385 95.1761C136.434 95.1761 135.605 95 134.896 94.6477C134.188 94.2917 133.639 93.7973 133.249 93.1648C132.858 92.5322 132.663 91.7992 132.663 90.9659V83.3636H134.771V90.7898C134.771 91.2746 134.877 91.7064 135.089 92.0852C135.305 92.464 135.608 92.7614 135.999 92.9773C136.389 93.1894 136.851 93.2955 137.385 93.2955C137.919 93.2955 138.381 93.1894 138.771 92.9773C139.165 92.7614 139.468 92.464 139.68 92.0852C139.893 91.7064 139.999 91.2746 139.999 90.7898V83.3636ZM150.722 86.5625C150.669 86.0663 150.445 85.6799 150.051 85.4034C149.661 85.1269 149.153 84.9886 148.528 84.9886C148.089 84.9886 147.712 85.0549 147.398 85.1875C147.083 85.3201 146.843 85.5 146.676 85.7273C146.509 85.9545 146.424 86.214 146.42 86.5057C146.42 86.7481 146.475 86.9583 146.585 87.1364C146.699 87.3144 146.852 87.4659 147.045 87.5909C147.239 87.7121 147.453 87.8144 147.688 87.8977C147.922 87.9811 148.159 88.0511 148.398 88.108L149.489 88.3807C149.928 88.483 150.35 88.6212 150.756 88.7955C151.165 88.9697 151.53 89.1894 151.852 89.4545C152.178 89.7197 152.436 90.0398 152.625 90.4148C152.814 90.7898 152.909 91.2292 152.909 91.733C152.909 92.4148 152.735 93.0152 152.386 93.5341C152.038 94.0492 151.534 94.4527 150.875 94.7443C150.22 95.0322 149.426 95.1761 148.494 95.1761C147.589 95.1761 146.803 95.036 146.136 94.7557C145.473 94.4754 144.955 94.0663 144.58 93.5284C144.208 92.9905 144.008 92.3352 143.977 91.5625H146.051C146.081 91.9678 146.206 92.3049 146.426 92.5739C146.646 92.8428 146.932 93.0436 147.284 93.1761C147.64 93.3087 148.038 93.375 148.477 93.375C148.936 93.375 149.337 93.3068 149.682 93.1705C150.03 93.0303 150.303 92.8371 150.5 92.5909C150.697 92.3409 150.797 92.0492 150.801 91.7159C150.797 91.4129 150.708 91.1629 150.534 90.9659C150.36 90.7652 150.116 90.5985 149.801 90.4659C149.491 90.3295 149.127 90.2083 148.71 90.1023L147.386 89.7614C146.428 89.5152 145.67 89.142 145.114 88.642C144.561 88.1383 144.284 87.4697 144.284 86.6364C144.284 85.9508 144.47 85.3504 144.841 84.8352C145.216 84.3201 145.725 83.9205 146.369 83.6364C147.013 83.3485 147.742 83.2045 148.557 83.2045C149.383 83.2045 150.106 83.3485 150.727 83.6364C151.352 83.9205 151.843 84.3163 152.199 84.8239C152.555 85.3277 152.739 85.9072 152.75 86.5625H150.722ZM154.788 95V83.3636H156.896V93.233H162.021V95H154.788ZM165.959 83.3636V95H163.851V83.3636H165.959ZM177.804 83.3636V95H175.929L170.446 87.0739H170.349V95H168.241V83.3636H170.128L175.605 91.2955H175.707V83.3636H177.804ZM180.101 95V83.3636H187.669V85.1307H182.209V88.2898H187.277V90.0568H182.209V93.233H187.714V95H180.101ZM196.143 86.5625C196.09 86.0663 195.867 85.6799 195.473 85.4034C195.083 85.1269 194.575 84.9886 193.95 84.9886C193.511 84.9886 193.134 85.0549 192.82 85.1875C192.505 85.3201 192.265 85.5 192.098 85.7273C191.931 85.9545 191.846 86.214 191.842 86.5057C191.842 86.7481 191.897 86.9583 192.007 87.1364C192.121 87.3144 192.274 87.4659 192.467 87.5909C192.661 87.7121 192.875 87.8144 193.109 87.8977C193.344 87.9811 193.581 88.0511 193.82 88.108L194.911 88.3807C195.35 88.483 195.772 88.6212 196.178 88.7955C196.587 88.9697 196.952 89.1894 197.274 89.4545C197.6 89.7197 197.857 90.0398 198.047 90.4148C198.236 90.7898 198.331 91.2292 198.331 91.733C198.331 92.4148 198.157 93.0152 197.808 93.5341C197.46 94.0492 196.956 94.4527 196.297 94.7443C195.642 95.0322 194.848 95.1761 193.916 95.1761C193.011 95.1761 192.225 95.036 191.558 94.7557C190.895 94.4754 190.376 94.0663 190.001 93.5284C189.63 92.9905 189.429 92.3352 189.399 91.5625H191.473C191.503 91.9678 191.628 92.3049 191.848 92.5739C192.068 92.8428 192.354 93.0436 192.706 93.1761C193.062 93.3087 193.46 93.375 193.899 93.375C194.357 93.375 194.759 93.3068 195.104 93.1705C195.452 93.0303 195.725 92.8371 195.922 92.5909C196.119 92.3409 196.219 92.0492 196.223 91.7159C196.219 91.4129 196.13 91.1629 195.956 90.9659C195.782 90.7652 195.537 90.5985 195.223 90.4659C194.912 90.3295 194.549 90.2083 194.132 90.1023L192.808 89.7614C191.85 89.5152 191.092 89.142 190.536 88.642C189.982 88.1383 189.706 87.4697 189.706 86.6364C189.706 85.9508 189.892 85.3504 190.263 84.8352C190.638 84.3201 191.147 83.9205 191.791 83.6364C192.435 83.3485 193.164 83.2045 193.979 83.2045C194.804 83.2045 195.528 83.3485 196.149 83.6364C196.774 83.9205 197.265 84.3163 197.621 84.8239C197.977 85.3277 198.161 85.9072 198.172 86.5625H196.143Z" fill="black"/>
</g>
<defs>
<clipPath id="clip0_652_1442">
<rect width="356" height="176" fill="white"/>
</clipPath>
</defs>
</svg>
