<svg width="356" height="242" viewBox="0 0 356 242" fill="none" xmlns="http://www.w3.org/2000/svg">
<path d="M131.186 172.629H129V165H131.23C131.87 165 132.421 165.153 132.88 165.458C133.342 165.761 133.697 166.197 133.945 166.766C134.193 167.335 134.317 168.015 134.317 168.807C134.317 169.602 134.192 170.285 133.942 170.856C133.694 171.427 133.336 171.865 132.868 172.171C132.402 172.477 131.841 172.629 131.186 172.629ZM130.169 171.433H131.129C131.578 171.433 131.953 171.337 132.254 171.143C132.554 170.947 132.78 170.655 132.931 170.267C133.082 169.878 133.157 169.391 133.157 168.807C133.157 168.224 133.082 167.739 132.931 167.354C132.78 166.967 132.556 166.678 132.26 166.486C131.966 166.293 131.601 166.196 131.164 166.196H130.169V171.433ZM135.427 172.629V165H137.896C138.362 165 138.75 165.087 139.058 165.261C139.369 165.432 139.601 165.667 139.754 165.965C139.91 166.263 139.987 166.601 139.987 166.978C139.987 167.289 139.937 167.554 139.836 167.775C139.735 167.994 139.6 168.172 139.43 168.308C139.26 168.445 139.07 168.543 138.86 168.602V168.677C139.089 168.692 139.308 168.775 139.518 168.926C139.73 169.075 139.903 169.286 140.038 169.56C140.172 169.833 140.239 170.163 140.239 170.55C140.239 170.946 140.158 171.3 139.997 171.616C139.835 171.929 139.592 172.176 139.266 172.357C138.941 172.539 138.531 172.629 138.038 172.629H135.427ZM136.595 171.474H137.852C138.276 171.474 138.582 171.379 138.768 171.188C138.957 170.994 139.052 170.746 139.052 170.443C139.052 170.216 139.005 170.013 138.91 169.832C138.816 169.648 138.681 169.504 138.507 169.399C138.333 169.293 138.125 169.239 137.883 169.239H136.595V171.474ZM136.595 168.245H137.751C137.953 168.245 138.134 168.201 138.296 168.114C138.458 168.025 138.585 167.899 138.677 167.738C138.772 167.574 138.819 167.38 138.819 167.157C138.819 166.861 138.731 166.618 138.554 166.427C138.38 166.235 138.121 166.14 137.776 166.14H136.595V168.245Z" fill="black"/>
<path d="M34.7388 185.598L36.4175 191.603H36.4837L38.1593 185.598H39.4443L37.1703 193.227H35.7278L33.457 185.598H34.7388ZM40.2939 193.227V185.598H41.4624V188.827H44.4513V185.598H45.623V193.227H44.4513V189.986H41.4624V193.227H40.2939ZM46.8938 193.227V185.598H48.0623V188.827H51.0512V185.598H52.2229V193.227H51.0512V189.986H48.0623V193.227H46.8938Z" fill="black"/>
<path d="M238.927 114.919C238.927 115.741 238.797 116.445 238.537 117.031C238.279 117.615 237.926 118.062 237.479 118.372C237.034 118.683 236.528 118.838 235.964 118.838C235.399 118.838 234.893 118.683 234.446 118.372C234 118.059 233.648 117.611 233.387 117.027C233.129 116.441 233 115.739 233 114.919C233 114.097 233.129 113.394 233.387 112.81C233.648 112.224 234 111.776 234.446 111.466C234.893 111.155 235.399 111 235.964 111C236.528 111 237.034 111.155 237.479 111.466C237.926 111.776 238.279 112.224 238.537 112.81C238.797 113.394 238.927 114.097 238.927 114.919ZM237.753 114.919C237.753 114.34 237.676 113.852 237.523 113.455C237.372 113.055 237.162 112.753 236.893 112.55C236.624 112.344 236.314 112.24 235.964 112.24C235.613 112.24 235.303 112.344 235.034 112.55C234.766 112.753 234.555 113.055 234.402 113.455C234.25 113.852 234.175 114.34 234.175 114.919C234.175 115.498 234.25 115.987 234.402 116.387C234.555 116.784 234.766 117.086 235.034 117.292C235.303 117.495 235.613 117.597 235.964 117.597C236.314 117.597 236.624 117.495 236.893 117.292C237.162 117.086 237.372 116.784 237.523 116.387C237.676 115.987 237.753 115.498 237.753 114.919ZM240.549 111.104L242.227 117.109H242.293L243.969 111.104H245.254L242.98 118.734H241.538L239.267 111.104H240.549ZM246.178 118.734H244.931L247.202 111.104H248.645L250.919 118.734H249.671L247.949 112.669H247.898L246.178 118.734ZM246.22 115.742H249.621V116.852H246.22V115.742Z" fill="black"/>
<path d="M200.563 35.241L202.242 41.2459H202.308L203.984 35.241H205.269L202.995 42.8701H201.552L199.281 35.241H200.563ZM206.981 35.241L208.66 41.2459H208.726L210.402 35.241H211.687L209.413 42.8701H207.97L205.699 35.241H206.981ZM216.042 37.3382C216.012 37.0129 215.888 36.7596 215.67 36.5783C215.454 36.397 215.172 36.3064 214.826 36.3064C214.582 36.3064 214.373 36.3498 214.199 36.4368C214.025 36.5237 213.892 36.6416 213.799 36.7906C213.707 36.9396 213.66 37.1098 213.657 37.301C213.657 37.4599 213.688 37.5978 213.749 37.7145C213.812 37.8312 213.897 37.9305 214.004 38.0125C214.111 38.092 214.23 38.159 214.36 38.2137C214.49 38.2683 214.621 38.3142 214.754 38.3515L215.358 38.5303C215.602 38.5973 215.836 38.688 216.061 38.8022C216.287 38.9165 216.49 39.0605 216.669 39.2343C216.849 39.4082 216.992 39.618 217.097 39.8639C217.202 40.1098 217.254 40.3978 217.254 40.7281C217.254 41.1751 217.158 41.5688 216.964 41.909C216.771 42.2468 216.492 42.5113 216.127 42.7025C215.763 42.8912 215.324 42.9856 214.807 42.9856C214.305 42.9856 213.87 42.8937 213.5 42.7099C213.132 42.5262 212.845 42.2579 212.637 41.9053C212.431 41.5526 212.32 41.123 212.303 40.6164H213.453C213.47 40.8821 213.539 41.1031 213.661 41.2795C213.782 41.4558 213.941 41.5874 214.136 41.6743C214.334 41.7613 214.554 41.8047 214.798 41.8047C215.052 41.8047 215.274 41.76 215.465 41.6706C215.658 41.5787 215.81 41.4521 215.919 41.2906C216.028 41.1267 216.084 40.9355 216.086 40.717C216.084 40.5183 216.034 40.3544 215.938 40.2252C215.841 40.0936 215.706 39.9844 215.532 39.8974C215.359 39.808 215.158 39.7285 214.927 39.659L214.193 39.4355C213.662 39.2741 213.242 39.0295 212.933 38.7016C212.626 38.3714 212.473 37.933 212.473 37.3867C212.473 36.9372 212.576 36.5435 212.782 36.2058C212.99 35.868 213.272 35.606 213.629 35.4198C213.986 35.231 214.39 35.1367 214.842 35.1367C215.3 35.1367 215.701 35.231 216.045 35.4198C216.391 35.606 216.663 35.8656 216.861 36.1983C217.058 36.5286 217.16 36.9086 217.166 37.3382H216.042Z" fill="black"/>
<path d="M263 200.734V193.104H265.471C265.937 193.104 266.323 193.191 266.631 193.365C266.942 193.536 267.176 193.771 267.329 194.069C267.484 194.367 267.56 194.705 267.56 195.083C267.56 195.393 267.511 195.659 267.41 195.88C267.309 196.098 267.173 196.276 267.003 196.412C266.833 196.549 266.644 196.647 266.434 196.706V196.781C266.663 196.796 266.883 196.879 267.092 197.031C267.304 197.18 267.477 197.391 267.612 197.664C267.745 197.937 267.814 198.267 267.814 198.655C267.814 199.05 267.733 199.405 267.57 199.72C267.41 200.033 267.166 200.28 266.841 200.462C266.516 200.643 266.104 200.734 265.612 200.734H263ZM264.17 199.579H265.427C265.85 199.579 266.156 199.483 266.343 199.292C266.53 199.098 266.627 198.85 266.627 198.547C266.627 198.321 266.58 198.117 266.484 197.936C266.39 197.752 266.255 197.608 266.082 197.504C265.907 197.397 265.698 197.343 265.456 197.343H264.17V199.579ZM264.17 196.349H265.326C265.528 196.349 265.708 196.306 265.87 196.219C266.03 196.129 266.158 196.004 266.252 195.842C266.346 195.678 266.392 195.485 266.392 195.261C266.392 194.966 266.304 194.722 266.129 194.531C265.954 194.34 265.695 194.244 265.35 194.244H264.17V196.349ZM269.694 193.104L271.372 199.109H271.438L273.113 193.104H274.397L272.123 200.734H270.682L268.41 193.104H269.694ZM279.223 195.541C279.169 195.34 279.098 195.159 279.004 195C278.915 194.839 278.807 194.701 278.679 194.587C278.551 194.473 278.408 194.387 278.243 194.33C278.08 194.27 277.9 194.24 277.708 194.24C277.361 194.24 277.053 194.344 276.782 194.55C276.511 194.756 276.296 195.059 276.141 195.459C275.988 195.856 275.912 196.34 275.912 196.912C275.912 197.488 275.988 197.976 276.141 198.376C276.296 198.775 276.508 199.08 276.782 199.288C277.055 199.494 277.371 199.597 277.733 199.597C278.06 199.597 278.344 199.523 278.583 199.374C278.824 199.225 279.011 199.014 279.139 198.741C279.27 198.465 279.337 198.142 279.337 197.772L279.6 197.82H277.849V196.74H280.467V197.656C280.467 198.31 280.349 198.875 280.113 199.351C279.879 199.828 279.556 200.196 279.144 200.454C278.733 200.71 278.26 200.838 277.725 200.838C277.132 200.838 276.609 200.68 276.161 200.365C275.715 200.047 275.365 199.596 275.111 199.013C274.863 198.426 274.737 197.731 274.737 196.926C274.737 196.31 274.811 195.76 274.959 195.276C275.106 194.792 275.316 194.381 275.582 194.043C275.848 193.703 276.161 193.445 276.521 193.268C276.88 193.089 277.27 193 277.691 193C278.048 193 278.381 193.062 278.691 193.186C278.999 193.308 279.273 193.482 279.512 193.708C279.753 193.934 279.953 194.202 280.108 194.513C280.263 194.823 280.364 195.166 280.413 195.541H279.223Z" fill="black"/>
<path d="M294.797 43.9793H296.228L298.143 49.5075H298.219L300.133 43.9793H301.562V51.6085H300.441V46.3671H300.382L298.598 51.5861H297.761L295.979 46.356H295.918V51.6085H294.797V43.9793ZM303.698 43.9793L305.376 49.9843H305.442L307.118 43.9793H308.404L306.13 51.6085H304.686L302.417 43.9793H303.698ZM313.228 46.4156C313.176 46.2144 313.102 46.0344 313.011 45.8754C312.92 45.714 312.811 45.5762 312.683 45.4619C312.557 45.3477 312.412 45.262 312.249 45.2049C312.084 45.1453 311.907 45.1155 311.712 45.1155C311.367 45.1155 311.057 45.2185 310.786 45.4247C310.515 45.6308 310.303 45.9338 310.148 46.3336C309.995 46.731 309.919 47.2152 309.919 47.7864C309.919 48.3626 309.995 48.8506 310.148 49.2504C310.301 49.6502 310.515 49.9545 310.786 50.1631C311.06 50.3692 311.377 50.4723 311.737 50.4723C312.065 50.4723 312.348 50.3978 312.589 50.2488C312.831 50.0997 313.016 49.8887 313.146 49.6155C313.277 49.3398 313.341 49.017 313.341 48.6469L313.607 48.6954H311.855V47.6151H314.472V48.5315C314.472 49.1846 314.353 49.7496 314.119 50.2264C313.885 50.7032 313.56 51.0708 313.149 51.3291C312.737 51.5848 312.264 51.7128 311.732 51.7128C311.138 51.7128 310.616 51.5551 310.168 51.2397C309.719 50.9218 309.369 50.471 309.118 49.8874C308.867 49.3013 308.744 48.606 308.744 47.8013C308.744 47.1854 308.818 46.6353 308.963 46.1511C309.113 45.6668 309.32 45.2558 309.586 44.9181C309.855 44.5778 310.168 44.3195 310.525 44.1432C310.885 43.9644 311.276 43.875 311.698 43.875C312.055 43.875 312.387 43.9371 312.695 44.0613C313.003 44.1829 313.279 44.3568 313.518 44.5828C313.76 44.8088 313.957 45.077 314.112 45.3874C314.267 45.6979 314.371 46.0406 314.418 46.4156H313.228Z" fill="black"/>
<path d="M340.227 126.78C342.743 126.78 344.78 124.369 344.78 121.394C344.78 118.419 342.743 116.008 340.227 116.008C337.712 116.008 335.672 118.419 335.672 121.394C335.672 124.369 337.712 126.78 340.227 126.78Z" fill="black"/>
<path d="M346.732 128.316H333.719C333.029 128.316 332.366 128.641 331.878 129.218C331.391 129.795 331.117 130.578 331.117 131.394V146.783H335.02V134.472H335.67V165.25H339.9V147.553H340.551V165.25H344.778V134.472H345.429V146.783H349.334V131.394C349.334 130.578 349.058 129.795 348.57 129.218C348.082 128.641 347.422 128.316 346.732 128.316Z" fill="black"/>
<path d="M346.952 116.005V115.737C346.954 115.213 347.003 114.788 347.099 114.46C347.196 114.132 347.334 113.856 347.518 113.631C347.708 113.402 347.94 113.184 348.216 112.975C348.422 112.816 348.597 112.649 348.738 112.474C348.881 112.295 348.987 112.099 349.061 111.888C349.137 111.672 349.174 111.439 349.174 111.187C349.174 110.829 349.102 110.517 348.96 110.248C348.819 109.98 348.629 109.773 348.388 109.627C348.147 109.479 347.88 109.404 347.587 109.404C347.306 109.404 347.045 109.477 346.801 109.623C346.56 109.765 346.363 109.977 346.21 110.258C346.057 110.536 345.976 110.881 345.961 111.291H345.168C345.183 110.745 345.296 110.271 345.513 109.871C345.727 109.47 346.015 109.161 346.378 108.942C346.737 108.72 347.141 108.609 347.587 108.609C348.05 108.609 348.459 108.724 348.812 108.952C349.167 109.177 349.442 109.487 349.64 109.881C349.839 110.271 349.938 110.72 349.938 111.227C349.938 111.561 349.893 111.866 349.805 112.141C349.713 112.416 349.58 112.669 349.401 112.901C349.223 113.132 349.004 113.351 348.738 113.556C348.484 113.755 348.285 113.952 348.137 114.147C347.989 114.343 347.883 114.566 347.816 114.818C347.752 115.066 347.718 115.373 347.713 115.737V116.005H346.952ZM347.356 118.995C347.191 118.995 347.048 118.925 346.927 118.786C346.809 118.644 346.75 118.475 346.75 118.28C346.75 118.081 346.809 117.912 346.927 117.773C347.048 117.634 347.191 117.565 347.356 117.565C347.521 117.565 347.661 117.634 347.779 117.773C347.9 117.912 347.959 118.081 347.959 118.28C347.959 118.409 347.932 118.528 347.876 118.637C347.824 118.747 347.75 118.835 347.659 118.901C347.568 118.964 347.467 118.995 347.356 118.995Z" fill="black"/>
<path d="M322.411 126.607L315.02 119.031" stroke="black"/>
<path d="M323.718 138.588L303.516 136.84" stroke="black"/>
<path d="M323.323 147.578L313.715 159.234" stroke="black"/>
<path d="M82.7688 115.362V126.998H80.6609V117.413H80.5927L77.8711 119.151V117.22L80.7632 115.362H82.7688ZM90.0245 127.22C89.0889 127.22 88.2859 126.983 87.6154 126.509C86.9488 126.032 86.4355 125.345 86.0757 124.447C85.7196 123.545 85.5416 122.46 85.5416 121.191C85.5454 119.922 85.7253 118.843 86.0813 117.953C86.4412 117.059 86.9545 116.377 87.6211 115.907C88.2916 115.437 89.0927 115.203 90.0245 115.203C90.9563 115.203 91.7575 115.437 92.4279 115.907C93.0984 116.377 93.6116 117.059 93.9677 117.953C94.3276 118.846 94.5075 119.926 94.5075 121.191C94.5075 122.464 94.3276 123.551 93.9677 124.453C93.6116 125.35 93.0984 126.036 92.4279 126.509C91.7613 126.983 90.9601 127.22 90.0245 127.22ZM90.0245 125.441C90.7518 125.441 91.3257 125.083 91.7461 124.367C92.1704 123.648 92.3825 122.589 92.3825 121.191C92.3825 120.267 92.2859 119.49 92.0927 118.862C91.8995 118.233 91.6268 117.759 91.2745 117.441C90.9223 117.119 90.5056 116.958 90.0245 116.958C89.301 116.958 88.7291 117.318 88.3086 118.038C87.8882 118.754 87.676 119.805 87.6723 121.191C87.6685 122.119 87.7613 122.9 87.9507 123.532C88.1438 124.165 88.4166 124.642 88.7688 124.964C89.1211 125.282 89.5397 125.441 90.0245 125.441ZM100.697 127.22C99.7608 127.22 98.9578 126.983 98.2873 126.509C97.6206 126.032 97.1074 125.345 96.7475 124.447C96.3915 123.545 96.2134 122.46 96.2134 121.191C96.2172 119.922 96.3972 118.843 96.7532 117.953C97.1131 117.059 97.6263 116.377 98.293 115.907C98.9634 115.437 99.7646 115.203 100.697 115.203C101.628 115.203 102.43 115.437 103.1 115.907C103.77 116.377 104.284 117.059 104.64 117.953C105 118.846 105.18 119.926 105.18 121.191C105.18 122.464 105 123.551 104.64 124.453C104.284 125.35 103.77 126.036 103.1 126.509C102.433 126.983 101.632 127.22 100.697 127.22ZM100.697 125.441C101.424 125.441 101.998 125.083 102.418 124.367C102.842 123.648 103.055 122.589 103.055 121.191C103.055 120.267 102.958 119.49 102.765 118.862C102.572 118.233 102.299 117.759 101.947 117.441C101.594 117.119 101.178 116.958 100.697 116.958C99.9729 116.958 99.4009 117.318 98.9805 118.038C98.56 118.754 98.3479 119.805 98.3441 121.191C98.3403 122.119 98.4331 122.9 98.6225 123.532C98.8157 124.165 99.0884 124.642 99.4407 124.964C99.793 125.282 100.212 125.441 100.697 125.441ZM110.522 125.134V117.271H112.306V125.134H110.522ZM107.482 122.095V120.31H115.346V122.095H107.482ZM121.915 126.998V115.362H126.37C127.211 115.362 127.91 115.494 128.466 115.759C129.027 116.021 129.446 116.379 129.722 116.833C130.002 117.288 130.143 117.803 130.143 118.379C130.143 118.852 130.052 119.257 129.87 119.595C129.688 119.928 129.444 120.199 129.137 120.407C128.83 120.615 128.487 120.765 128.109 120.856V120.97C128.521 120.992 128.917 121.119 129.296 121.35C129.679 121.578 129.991 121.9 130.234 122.316C130.476 122.733 130.597 123.237 130.597 123.828C130.597 124.43 130.451 124.971 130.16 125.453C129.868 125.93 129.429 126.307 128.841 126.583C128.254 126.86 127.516 126.998 126.626 126.998H121.915ZM124.023 125.237H126.29C127.056 125.237 127.607 125.091 127.944 124.799C128.285 124.504 128.455 124.125 128.455 123.663C128.455 123.318 128.37 123.007 128.199 122.731C128.029 122.451 127.787 122.231 127.472 122.072C127.158 121.909 126.783 121.828 126.347 121.828H124.023V125.237ZM124.023 120.31H126.109C126.472 120.31 126.8 120.244 127.091 120.112C127.383 119.975 127.612 119.784 127.779 119.538C127.949 119.288 128.035 118.992 128.035 118.651C128.035 118.201 127.876 117.829 127.557 117.538C127.243 117.246 126.775 117.1 126.154 117.1H124.023V120.31ZM139.766 115.362H141.874V122.964C141.874 123.797 141.677 124.53 141.283 125.163C140.893 125.795 140.344 126.29 139.636 126.646C138.927 126.998 138.1 127.174 137.153 127.174C136.202 127.174 135.372 126.998 134.664 126.646C133.956 126.29 133.406 125.795 133.016 125.163C132.626 124.53 132.431 123.797 132.431 122.964V115.362H134.539V122.788C134.539 123.273 134.645 123.704 134.857 124.083C135.073 124.462 135.376 124.759 135.766 124.975C136.156 125.187 136.618 125.293 137.153 125.293C137.687 125.293 138.149 125.187 138.539 124.975C138.933 124.759 139.236 124.462 139.448 124.083C139.66 123.704 139.766 123.273 139.766 122.788V115.362ZM150.489 118.56C150.436 118.064 150.213 117.678 149.819 117.401C149.429 117.125 148.921 116.987 148.296 116.987C147.857 116.987 147.48 117.053 147.165 117.186C146.851 117.318 146.61 117.498 146.444 117.725C146.277 117.953 146.192 118.212 146.188 118.504C146.188 118.746 146.243 118.956 146.353 119.134C146.466 119.312 146.62 119.464 146.813 119.589C147.006 119.71 147.22 119.812 147.455 119.896C147.69 119.979 147.927 120.049 148.165 120.106L149.256 120.379C149.696 120.481 150.118 120.619 150.523 120.793C150.932 120.968 151.298 121.187 151.62 121.453C151.946 121.718 152.203 122.038 152.393 122.413C152.582 122.788 152.677 123.227 152.677 123.731C152.677 124.413 152.502 125.013 152.154 125.532C151.806 126.047 151.302 126.451 150.643 126.742C149.987 127.03 149.194 127.174 148.262 127.174C147.357 127.174 146.571 127.034 145.904 126.754C145.241 126.473 144.722 126.064 144.347 125.526C143.976 124.989 143.775 124.333 143.745 123.56H145.819C145.849 123.966 145.974 124.303 146.194 124.572C146.413 124.841 146.699 125.042 147.052 125.174C147.408 125.307 147.806 125.373 148.245 125.373C148.703 125.373 149.105 125.305 149.449 125.168C149.798 125.028 150.071 124.835 150.268 124.589C150.465 124.339 150.565 124.047 150.569 123.714C150.565 123.411 150.476 123.161 150.302 122.964C150.127 122.763 149.883 122.596 149.569 122.464C149.258 122.328 148.895 122.206 148.478 122.1L147.154 121.759C146.196 121.513 145.438 121.14 144.881 120.64C144.328 120.136 144.052 119.468 144.052 118.634C144.052 117.949 144.237 117.348 144.609 116.833C144.984 116.318 145.493 115.918 146.137 115.634C146.781 115.346 147.51 115.203 148.324 115.203C149.15 115.203 149.874 115.346 150.495 115.634C151.12 115.918 151.61 116.314 151.966 116.822C152.323 117.326 152.506 117.905 152.518 118.56H150.489ZM154.556 126.998V115.362H156.664V125.231H161.789V126.998H154.556ZM165.726 115.362V126.998H163.618V115.362H165.726ZM177.572 115.362V126.998H175.697L170.214 119.072H170.117V126.998H168.009V115.362H169.895L175.373 123.293H175.475V115.362H177.572ZM179.868 126.998V115.362H187.437V117.129H181.976V120.288H187.045V122.055H181.976V125.231H187.482V126.998H179.868ZM195.911 118.56C195.858 118.064 195.635 117.678 195.241 117.401C194.85 117.125 194.343 116.987 193.718 116.987C193.279 116.987 192.902 117.053 192.587 117.186C192.273 117.318 192.032 117.498 191.866 117.725C191.699 117.953 191.614 118.212 191.61 118.504C191.61 118.746 191.665 118.956 191.775 119.134C191.888 119.312 192.042 119.464 192.235 119.589C192.428 119.71 192.642 119.812 192.877 119.896C193.112 119.979 193.349 120.049 193.587 120.106L194.678 120.379C195.118 120.481 195.54 120.619 195.945 120.793C196.354 120.968 196.72 121.187 197.042 121.453C197.368 121.718 197.625 122.038 197.814 122.413C198.004 122.788 198.099 123.227 198.099 123.731C198.099 124.413 197.924 125.013 197.576 125.532C197.227 126.047 196.724 126.451 196.064 126.742C195.409 127.03 194.616 127.174 193.684 127.174C192.779 127.174 191.993 127.034 191.326 126.754C190.663 126.473 190.144 126.064 189.769 125.526C189.398 124.989 189.197 124.333 189.167 123.56H191.241C191.271 123.966 191.396 124.303 191.616 124.572C191.835 124.841 192.121 125.042 192.474 125.174C192.83 125.307 193.227 125.373 193.667 125.373C194.125 125.373 194.527 125.305 194.871 125.168C195.22 125.028 195.493 124.835 195.69 124.589C195.886 124.339 195.987 124.047 195.991 123.714C195.987 123.411 195.898 123.161 195.724 122.964C195.549 122.763 195.305 122.596 194.991 122.464C194.68 122.328 194.316 122.206 193.9 122.1L192.576 121.759C191.618 121.513 190.86 121.14 190.303 120.64C189.75 120.136 189.474 119.468 189.474 118.634C189.474 117.949 189.659 117.348 190.03 116.833C190.405 116.318 190.915 115.918 191.559 115.634C192.203 115.346 192.932 115.203 193.746 115.203C194.572 115.203 195.296 115.346 195.917 115.634C196.542 115.918 197.032 116.314 197.388 116.822C197.744 117.326 197.928 117.905 197.94 118.56H195.911Z" fill="black"/>
<path d="M164 221.315V213.93H166.419C166.915 213.93 167.33 214.028 167.666 214.225C168.004 214.423 168.259 214.699 168.432 215.055C168.606 215.408 168.693 215.82 168.693 216.292C168.693 216.765 168.605 217.176 168.428 217.525C168.254 217.871 167.997 218.139 167.657 218.329C167.317 218.517 166.899 218.61 166.403 218.61H164.68V217.5H166.246C166.536 217.5 166.773 217.454 166.958 217.363C167.142 217.269 167.279 217.133 167.367 216.955C167.457 216.775 167.502 216.554 167.502 216.292C167.502 216.03 167.457 215.806 167.367 215.621C167.277 215.433 167.139 215.292 166.954 215.195C166.77 215.097 166.531 215.048 166.239 215.048H165.169V221.315H164ZM167.332 217.968L168.929 221.315H167.625L166.057 217.968H167.332ZM169.768 213.93H171.198L173.113 219.281H173.189L175.104 213.93H176.534V221.315H175.413V216.241H175.353L173.57 221.293H172.732L170.95 216.23H170.89V221.315H169.768V213.93ZM178.669 213.93L180.348 219.743H180.414L182.09 213.93H183.375L181.101 221.315H179.658L177.387 213.93H178.669Z" fill="black"/>
<path d="M28.512 28.2678C28.4826 27.9529 28.3587 27.7077 28.1403 27.5322C27.9241 27.3567 27.6427 27.269 27.2962 27.269C27.0527 27.269 26.8438 27.3111 26.6695 27.3952C26.4952 27.4794 26.3619 27.5935 26.2695 27.7378C26.1771 27.882 26.1299 28.0467 26.1278 28.2318C26.1278 28.3856 26.1582 28.5191 26.2191 28.632C26.2821 28.745 26.3671 28.8412 26.4742 28.9205C26.5813 28.9975 26.6999 29.0624 26.8301 29.1153C26.9603 29.1681 27.0915 29.2126 27.2238 29.2487L27.8285 29.4217C28.0721 29.4867 28.3062 29.5744 28.5309 29.685C28.7576 29.7956 28.9603 29.935 29.1387 30.1033C29.3193 30.2716 29.4621 30.4747 29.5671 30.7127C29.6721 30.9507 29.7246 31.2295 29.7246 31.5493C29.7246 31.982 29.628 32.363 29.4348 32.6924C29.2416 33.0193 28.9624 33.2753 28.597 33.4604C28.2338 33.6431 27.7939 33.7345 27.2773 33.7345C26.7755 33.7345 26.3398 33.6455 25.9703 33.4676C25.6028 33.2897 25.3152 33.0301 25.1073 32.6888C24.9015 32.3474 24.7902 31.9315 24.7734 31.4411H25.923C25.9398 31.6983 26.0091 31.9123 26.1309 32.083C26.2527 32.2536 26.4112 32.381 26.6065 32.4652C26.8039 32.5493 27.0243 32.5914 27.2679 32.5914C27.522 32.5914 27.7445 32.5481 27.9356 32.4616C28.1288 32.3726 28.28 32.25 28.3892 32.0938C28.4983 31.9351 28.554 31.75 28.5561 31.5385C28.554 31.3461 28.5046 31.1875 28.408 31.0625C28.3115 30.9351 28.176 30.8293 28.0018 30.7451C27.8296 30.6586 27.628 30.5817 27.397 30.5144L26.6632 30.298C26.132 30.1417 25.712 29.905 25.4034 29.5876C25.0968 29.2679 24.9435 28.8436 24.9435 28.3147C24.9435 27.8796 25.0464 27.4986 25.2522 27.1716C25.46 26.8447 25.7425 26.5911 26.0994 26.4108C26.4564 26.2281 26.8606 26.1367 27.312 26.1367C27.7697 26.1367 28.1708 26.2281 28.5151 26.4108C28.8616 26.5911 29.1335 26.8423 29.3309 27.1644C29.5283 27.4841 29.6301 27.852 29.6364 28.2678H28.512ZM34.2718 28.2678C34.2424 27.9529 34.1185 27.7077 33.9001 27.5322C33.6838 27.3567 33.4025 27.269 33.056 27.269C32.8125 27.269 32.6036 27.3111 32.4293 27.3952C32.255 27.4794 32.1217 27.5935 32.0293 27.7378C31.9369 27.882 31.8897 28.0467 31.8875 28.2318C31.8875 28.3856 31.918 28.5191 31.9789 28.632C32.0419 28.745 32.1269 28.8412 32.234 28.9205C32.3411 28.9975 32.4597 29.0624 32.5899 29.1153C32.7201 29.1681 32.8513 29.2126 32.9836 29.2487L33.5883 29.4217C33.8319 29.4867 34.066 29.5744 34.2907 29.685C34.5174 29.7956 34.7201 29.935 34.8985 30.1033C35.0791 30.2716 35.2219 30.4747 35.3269 30.7127C35.4319 30.9507 35.4844 31.2295 35.4844 31.5493C35.4844 31.982 35.3878 32.363 35.1946 32.6924C35.0014 33.0193 34.7222 33.2753 34.3568 33.4604C33.9936 33.6431 33.5537 33.7345 33.0371 33.7345C32.5353 33.7345 32.0996 33.6455 31.7301 33.4676C31.3626 33.2897 31.0749 33.0301 30.8671 32.6888C30.6613 32.3474 30.55 31.9315 30.5332 31.4411H31.6828C31.6996 31.6983 31.7689 31.9123 31.8907 32.083C32.0125 32.2536 32.171 32.381 32.3663 32.4652C32.5636 32.5493 32.7841 32.5914 33.0277 32.5914C33.2817 32.5914 33.5043 32.5481 33.6954 32.4616C33.8886 32.3726 34.0397 32.25 34.1489 32.0938C34.2581 31.9351 34.3138 31.75 34.3159 31.5385C34.3138 31.3461 34.2644 31.1875 34.1678 31.0625C34.0713 30.9351 33.9358 30.8293 33.7615 30.7451C33.5894 30.6586 33.3878 30.5817 33.1568 30.5144L32.423 30.298C31.8917 30.1417 31.4718 29.905 31.1631 29.5876C30.8566 29.2679 30.7033 28.8436 30.7033 28.3147C30.7033 27.8796 30.8062 27.4986 31.012 27.1716C31.2198 26.8447 31.5022 26.5911 31.8592 26.4108C32.2161 26.2281 32.6204 26.1367 33.0718 26.1367C33.5295 26.1367 33.9306 26.2281 34.2749 26.4108C34.6214 26.5911 34.8933 26.8423 35.0907 27.1644C35.288 27.4841 35.3899 27.852 35.3962 28.2678H34.2718ZM36.5261 33.6227V26.2377H38.9953C39.4615 26.2377 39.8489 26.3218 40.1576 26.4901C40.4683 26.656 40.7003 26.8832 40.8536 27.1716C41.009 27.4601 41.0867 27.7871 41.0867 28.1524C41.0867 28.453 41.0363 28.7102 40.9355 28.9241C40.8347 29.1357 40.6993 29.3076 40.5292 29.4398C40.3591 29.572 40.1691 29.667 39.9591 29.7247V29.7968C40.188 29.8112 40.4074 29.8917 40.6174 30.0384C40.8294 30.1826 41.0027 30.3869 41.1371 30.6514C41.2714 30.9158 41.3386 31.2355 41.3386 31.6106C41.3386 31.9928 41.2578 32.3366 41.0961 32.6419C40.9344 32.9448 40.6909 33.184 40.3654 33.3595C40.04 33.5349 39.6305 33.6227 39.1371 33.6227H36.5261ZM37.6946 32.5048H38.9512C39.3754 32.5048 39.6809 32.4123 39.8678 32.2272C40.0568 32.0397 40.1512 31.7993 40.1512 31.506C40.1512 31.2872 40.104 31.0901 40.0095 30.9146C39.915 30.7367 39.7806 30.5973 39.6064 30.4963C39.4321 30.393 39.2242 30.3413 38.9828 30.3413H37.6946V32.5048ZM37.6946 29.3785H38.8505C39.052 29.3785 39.2337 29.3364 39.3953 29.2523C39.557 29.1657 39.6841 29.0443 39.7764 28.8881C39.8709 28.7294 39.9182 28.5419 39.9182 28.3256C39.9182 28.0395 39.83 27.8039 39.6536 27.6188C39.4793 27.4337 39.22 27.3411 38.8757 27.3411H37.6946V29.3785Z" fill="black"/>
<path d="M107.658 70.5454C107.658 71.3411 107.528 72.0226 107.267 72.5901C107.009 73.1551 106.656 73.5878 106.209 73.8882C105.764 74.1886 105.259 74.3389 104.694 74.3389C104.129 74.3389 103.623 74.1886 103.176 73.8882C102.731 73.5853 102.378 73.1515 102.118 72.5865C101.86 72.0192 101.73 71.3389 101.73 70.5454C101.73 69.7497 101.86 69.0694 102.118 68.5044C102.378 67.9372 102.731 67.5034 103.176 67.2027C103.623 66.9023 104.129 66.7519 104.694 66.7519C105.259 66.7519 105.764 66.9023 106.209 67.2027C106.656 67.5034 107.009 67.9372 107.267 68.5044C107.528 69.0694 107.658 69.7497 107.658 70.5454ZM106.483 70.5454C106.483 69.9853 106.407 69.5131 106.253 69.1283C106.102 68.7413 105.892 68.4491 105.623 68.252C105.355 68.0525 105.045 67.9527 104.694 67.9527C104.343 67.9527 104.034 68.0525 103.765 68.252C103.496 68.4491 103.285 68.7413 103.132 69.1283C102.981 69.5131 102.905 69.9853 102.905 70.5454C102.905 71.1056 102.981 71.5792 103.132 71.9662C103.285 72.3509 103.496 72.6429 103.765 72.8426C104.034 73.0395 104.343 73.1382 104.694 73.1382C105.045 73.1382 105.355 73.0395 105.623 72.8426C105.892 72.6429 106.102 72.3509 106.253 71.9662C106.407 71.5792 106.483 71.1056 106.483 70.5454ZM112.536 70.1632L111.496 70.293C111.467 70.1728 111.416 70.06 111.342 69.9539C111.271 69.8485 111.174 69.763 111.052 69.6981C110.931 69.6332 110.782 69.6008 110.605 69.6008C110.368 69.6008 110.168 69.6595 110.007 69.7774C109.847 69.8953 109.768 70.0479 109.77 70.2354C109.768 70.3965 109.82 70.5274 109.925 70.6284C110.032 70.7293 110.208 70.8123 110.454 70.8772L111.279 71.0791C111.737 71.1922 112.077 71.3713 112.3 71.6164C112.524 71.8616 112.638 72.1826 112.64 72.5791C112.638 72.9278 112.548 73.2355 112.372 73.5023C112.198 73.7669 111.955 73.9734 111.645 74.1226C111.334 74.2715 110.977 74.3463 110.574 74.3463C109.982 74.3463 109.505 74.2044 109.144 73.9206C108.782 73.6346 108.567 73.2366 108.498 72.7269L109.61 72.6045C109.66 72.8544 109.767 73.0431 109.931 73.1706C110.095 73.2981 110.308 73.3616 110.57 73.3616C110.841 73.3616 111.059 73.2981 111.223 73.1706C111.388 73.0431 111.471 72.8857 111.471 72.6982C111.471 72.5396 111.418 72.4085 111.311 72.3052C111.206 72.2017 111.042 72.1225 110.819 72.0672L109.994 71.8689C109.53 71.7583 109.187 71.5719 108.964 71.3098C108.742 71.0455 108.631 70.7113 108.633 70.3074C108.631 69.9661 108.712 69.6705 108.876 69.4203C109.042 69.1681 109.272 68.9732 109.566 68.8361C109.862 68.6968 110.203 68.6271 110.589 68.6271C111.156 68.6271 111.602 68.7653 111.928 69.0417C112.256 69.3182 112.458 69.6922 112.536 70.1632ZM115.996 68.6993V69.7088H113.215V68.6993H115.996ZM113.901 67.3722H115.041V72.5721C115.041 72.7475 115.064 72.8821 115.111 72.976C115.159 73.0671 115.222 73.1297 115.3 73.1633C115.377 73.1971 115.463 73.2138 115.558 73.2138C115.629 73.2138 115.694 73.2079 115.753 73.1957C115.814 73.1839 115.86 73.1729 115.892 73.1633L116.084 74.1838C116.023 74.2078 115.936 74.2343 115.822 74.2631C115.711 74.2921 115.575 74.3088 115.413 74.3136C115.127 74.3234 114.87 74.2741 114.641 74.1658C114.412 74.0552 114.231 73.8845 114.096 73.6538C113.964 73.4231 113.899 73.1345 113.901 72.7884V67.3722ZM118.341 74.3497C118.035 74.3497 117.759 74.2873 117.513 74.1624C117.269 74.0349 117.076 73.8473 116.933 73.5997C116.793 73.352 116.722 73.0468 116.722 72.6838C116.722 72.3713 116.773 72.1129 116.874 71.9084C116.974 71.7042 117.112 71.5409 117.286 71.4182C117.461 71.2955 117.657 71.2029 117.875 71.1403C118.096 71.0754 118.323 71.0286 118.559 70.9998C118.842 70.9663 119.072 70.9361 119.248 70.9096C119.425 70.8808 119.553 70.8377 119.632 70.7798C119.715 70.7198 119.755 70.6272 119.755 70.5023V70.4806C119.755 70.2089 119.685 69.9985 119.544 69.8496C119.404 69.7004 119.201 69.6259 118.936 69.6259C118.657 69.6259 118.436 69.6956 118.272 69.8352C118.11 69.9745 118.001 70.1393 117.944 70.3291L116.88 70.1559C116.964 69.8194 117.103 69.5382 117.296 69.3122C117.489 69.0838 117.725 68.9131 118.004 68.8003C118.284 68.6846 118.592 68.6271 118.93 68.6271C119.163 68.6271 119.395 68.6584 119.626 68.7208C119.857 68.7834 120.068 68.8866 120.259 69.031C120.45 69.1729 120.604 69.3664 120.719 69.6115C120.837 69.8566 120.896 70.1632 120.896 70.5311V74.238H119.8V73.4772H119.762C119.692 73.631 119.595 73.7751 119.469 73.9099C119.345 74.0419 119.189 74.1491 119 74.2306C118.813 74.3102 118.593 74.3497 118.341 74.3497ZM118.637 73.3906C118.866 73.3906 119.065 73.3387 119.233 73.2355C119.401 73.1297 119.53 72.9904 119.62 72.8172C119.712 72.644 119.759 72.4553 119.759 72.2511V71.5984C119.723 71.632 119.662 71.6633 119.576 71.692C119.492 71.7211 119.397 71.7462 119.293 71.7679C119.188 71.7896 119.084 71.8088 118.981 71.8255C118.878 71.8424 118.788 71.8568 118.713 71.8689C118.543 71.8954 118.391 71.9386 118.256 71.9986C118.122 72.0587 118.016 72.1428 117.938 72.2511C117.86 72.3569 117.822 72.494 117.822 72.6621C117.822 72.9027 117.898 73.084 118.052 73.2067C118.205 73.3291 118.4 73.3906 118.637 73.3906ZM123.182 66.8529V74.238H122.042V66.8529H123.182ZM124.405 74.238V66.8529H125.545V69.6152H125.592C125.651 69.4806 125.734 69.3374 125.841 69.1859C125.948 69.0322 126.093 68.9013 126.276 68.793C126.459 68.6824 126.692 68.6271 126.975 68.6271C127.349 68.6271 127.686 68.7365 127.986 68.9551C128.288 69.1715 128.528 69.4925 128.704 69.9181C128.883 70.3412 128.972 70.8605 128.972 71.4757C128.972 72.0841 128.885 72.6009 128.71 73.0265C128.536 73.4518 128.299 73.7765 127.999 73.9999C127.698 74.2236 127.358 74.3353 126.978 74.3353C126.701 74.3353 126.471 74.2825 126.288 74.1768C126.106 74.071 125.959 73.9435 125.848 73.7946C125.738 73.6431 125.653 73.5001 125.592 73.3653H125.526V74.238H124.405ZM125.523 71.4686C125.523 71.8269 125.567 72.1405 125.655 72.4096C125.746 72.679 125.875 72.8894 126.043 73.0409C126.213 73.1898 126.419 73.2643 126.66 73.2643C126.912 73.2643 127.123 73.1876 127.293 73.0335C127.463 72.8773 127.591 72.6646 127.677 72.3952C127.766 72.1236 127.81 71.8147 127.81 71.4686C127.81 71.1248 127.767 70.8196 127.681 70.5528C127.595 70.2859 127.466 70.0766 127.296 69.9252C127.126 69.7737 126.914 69.6981 126.66 69.6981C126.416 69.6981 126.21 69.7714 126.04 69.9181C125.87 70.0648 125.74 70.2701 125.652 70.5347C125.566 70.799 125.523 71.1104 125.523 71.4686ZM129.991 66.8529H131.421L133.336 72.2043H133.412L135.327 66.8529H136.757V74.238H135.635V69.1644H135.576L133.793 74.2163H132.955L131.173 69.1534H131.113V74.238H129.991V66.8529ZM140.089 74.3463C139.617 74.3463 139.207 74.2272 138.861 73.9892C138.514 73.7511 138.245 73.4183 138.055 72.9904C137.865 72.5625 137.771 72.0624 137.771 71.4904C137.771 70.918 137.865 70.4168 138.055 69.9867C138.245 69.5562 138.514 69.222 138.861 68.9842C139.207 68.7461 139.617 68.6271 140.089 68.6271C140.562 68.6271 140.971 68.7461 141.317 68.9842C141.664 69.222 141.932 69.5562 142.121 69.9867C142.312 70.4168 142.407 70.918 142.407 71.4904C142.407 72.0624 142.312 72.5625 142.121 72.9904C141.932 73.4183 141.664 73.7511 141.317 73.9892C140.971 74.2272 140.562 74.3463 140.089 74.3463ZM140.095 73.3004C140.351 73.3004 140.566 73.22 140.738 73.0589C140.91 72.8953 141.038 72.6764 141.122 72.4026C141.208 72.1284 141.251 71.8232 141.251 71.4867C141.251 71.1477 141.208 70.841 141.122 70.5672C141.038 70.2907 140.91 70.0707 140.738 69.9071C140.566 69.7438 140.351 69.662 140.095 69.662C139.833 69.662 139.615 69.7438 139.44 69.9071C139.268 70.0707 139.139 70.2907 139.053 70.5672C138.969 70.841 138.927 71.1477 138.927 71.4867C138.927 71.8232 138.969 72.1284 139.053 72.4026C139.139 72.6764 139.268 72.8953 139.44 73.0589C139.615 73.22 139.833 73.3004 140.095 73.3004ZM143.425 74.238V66.8529H144.565V69.6152H144.613C144.671 69.4806 144.754 69.3374 144.861 69.1859C144.969 69.0322 145.113 68.9013 145.296 68.793C145.479 68.6824 145.712 68.6271 145.995 68.6271C146.369 68.6271 146.706 68.7365 147.006 68.9551C147.309 69.1715 147.548 69.4925 147.724 69.9181C147.903 70.3412 147.992 70.8605 147.992 71.4757C147.992 72.0841 147.905 72.6009 147.731 73.0265C147.556 73.4518 147.319 73.7765 147.019 73.9999C146.719 74.2236 146.379 74.3353 145.998 74.3353C145.721 74.3353 145.491 74.2825 145.309 74.1768C145.126 74.071 144.979 73.9435 144.868 73.7946C144.759 73.6431 144.673 73.5001 144.613 73.3653H144.547V74.238H143.425ZM144.543 71.4686C144.543 71.8269 144.587 72.1405 144.676 72.4096C144.766 72.679 144.895 72.8894 145.063 73.0409C145.233 73.1898 145.439 73.2643 145.68 73.2643C145.932 73.2643 146.143 73.1876 146.314 73.0335C146.484 72.8773 146.612 72.6646 146.698 72.3952C146.786 72.1236 146.83 71.8147 146.83 71.4686C146.83 71.1248 146.787 70.8196 146.701 70.5528C146.615 70.2859 146.487 70.0766 146.316 69.9252C146.146 69.7737 145.934 69.6981 145.68 69.6981C145.437 69.6981 145.23 69.7714 145.06 69.9181C144.89 70.0648 144.761 70.2701 144.672 70.5347C144.586 70.799 144.543 71.1104 144.543 71.4686ZM148.961 74.238V68.6993H150.102V74.238H148.961ZM149.535 67.9132C149.354 67.9132 149.199 67.8447 149.068 67.7076C148.938 67.5682 148.873 67.401 148.873 67.2063C148.873 67.0092 148.938 66.8422 149.068 66.7051C149.199 66.5658 149.354 66.4961 149.535 66.4961C149.717 66.4961 149.873 66.5658 150.001 66.7051C150.131 66.8422 150.196 67.0092 150.196 67.2063C150.196 67.401 150.131 67.5682 150.001 67.7076C149.873 67.8447 149.717 67.9132 149.535 67.9132ZM152.414 66.8529V74.238H151.274V66.8529H152.414Z" fill="black"/>
</svg>
